<svg width="33" height="31" viewBox="0 0 33 31" fill="none" xmlns="http://www.w3.org/2000/svg">
<path d="M28.8788 0.669678H4.27273C2.33939 0.669678 0.757576 2.17241 0.757576 4.00907V27.3848C0.757576 29.2232 2.33939 30.7242 4.27273 30.7242H16.5758V19.0363H13.0606V14.9038H16.5758V11.481C16.5758 7.86774 18.7059 5.3298 23.1948 5.3298L26.3637 5.33314V9.6827H24.2599C22.5128 9.6827 21.8485 10.9283 21.8485 12.0837V14.9055H26.3619L25.3636 19.0363H21.8485V30.7242H28.8788C30.8121 30.7242 32.3939 29.2232 32.3939 27.3848V4.00907C32.3939 2.17241 30.8121 0.669678 28.8788 0.669678Z" fill="white"/>
</svg>
