<svg width="33" height="32" viewBox="0 0 33 32" fill="none" xmlns="http://www.w3.org/2000/svg">
<path d="M16.5301 7.98297C11.8517 7.98297 8.07813 11.6151 8.07813 16.118C8.07813 20.6209 11.8517 24.253 16.5301 24.253C21.2085 24.253 24.982 20.6209 24.982 16.118C24.982 11.6151 21.2085 7.98297 16.5301 7.98297ZM16.5301 21.4068C13.5068 21.4068 11.0352 19.035 11.0352 16.118C11.0352 13.201 13.4994 10.8292 16.5301 10.8292C19.5607 10.8292 22.025 13.201 22.025 16.118C22.025 19.035 19.5534 21.4068 16.5301 21.4068ZM27.2992 7.65021C27.2992 8.70514 26.4165 9.54767 25.3278 9.54767C24.2317 9.54767 23.3564 8.69806 23.3564 7.65021C23.3564 6.60236 24.2391 5.75275 25.3278 5.75275C26.4165 5.75275 27.2992 6.60236 27.2992 7.65021ZM32.897 9.57599C32.772 7.03424 32.1688 4.78278 30.2342 2.9278C28.3069 1.07281 25.9677 0.492249 23.327 0.364807C20.6053 0.216125 12.4475 0.216125 9.72585 0.364807C7.09243 0.485168 4.75325 1.06573 2.81864 2.92072C0.884032 4.7757 0.288202 7.02716 0.155796 9.56891C0.00132127 12.1885 0.00132127 20.0403 0.155796 22.66C0.280846 25.2017 0.884032 27.4532 2.81864 29.3082C4.75325 31.1632 7.08508 31.7437 9.72585 31.8712C12.4475 32.0198 20.6053 32.0198 23.327 31.8712C25.9677 31.7508 28.3069 31.1702 30.2342 29.3082C32.1614 27.4532 32.7646 25.2017 32.897 22.66C33.0515 20.0403 33.0515 12.1956 32.897 9.57599ZM29.3809 25.4708C28.8071 26.8585 27.6964 27.9276 26.2473 28.4869C24.0773 29.3152 18.9281 29.1241 16.5301 29.1241C14.1321 29.1241 8.97555 29.3082 6.81291 28.4869C5.37115 27.9346 4.2604 26.8655 3.67928 25.4708C2.81864 23.3821 3.01725 18.4261 3.01725 16.118C3.01725 13.8099 2.826 8.84674 3.67928 6.7652C4.25305 5.3775 5.36379 4.30841 6.81291 3.74908C8.98291 2.92072 14.1321 3.11188 16.5301 3.11188C18.9281 3.11188 24.0846 2.9278 26.2473 3.74908C27.689 4.30133 28.7998 5.37042 29.3809 6.7652C30.2415 8.85382 30.0429 13.8099 30.0429 16.118C30.0429 18.4261 30.2415 23.3892 29.3809 25.4708Z" fill="white"/>
</svg>
