<svg width="34" height="27" viewBox="0 0 34 27" fill="none" xmlns="http://www.w3.org/2000/svg">
<path d="M33.871 3.8694C32.648 4.38423 31.3342 4.73208 29.9531 4.88931C31.3782 4.07922 32.4444 2.80423 32.9527 1.30224C31.6138 2.05777 30.1484 2.58957 28.6202 2.87454C27.5926 1.83218 26.2315 1.14129 24.7482 0.909133C23.2649 0.676973 21.7424 0.916532 20.4171 1.59062C19.0918 2.2647 18.0379 3.3356 17.4189 4.63705C16.7999 5.9385 16.6505 7.39768 16.9939 8.78805C14.2809 8.65865 11.6269 7.98875 9.20405 6.82185C6.78123 5.65495 4.64376 4.01712 2.93035 2.01465C2.34449 2.97472 2.00762 4.08786 2.00762 5.27334C2.00697 6.34055 2.28361 7.39141 2.813 8.33269C3.34239 9.27396 4.10816 10.0766 5.04237 10.6692C3.95894 10.6365 2.89941 10.3584 1.95197 9.85805V9.94153C1.95186 11.4383 2.49686 12.8891 3.49451 14.0476C4.49215 15.2061 5.88099 16.001 7.42535 16.2975C6.42029 16.5559 5.36655 16.594 4.34374 16.4088C4.77946 17.6967 5.62822 18.823 6.77119 19.6298C7.91416 20.4367 9.29412 20.8839 10.7179 20.9087C8.30097 22.7111 5.3161 23.6888 2.24343 23.6845C1.69914 23.6847 1.15531 23.6545 0.614746 23.5941C3.73368 25.4992 7.36433 26.5102 11.0723 26.5063C23.6243 26.5063 30.4862 16.6301 30.4862 8.06452C30.4862 7.78623 30.4789 7.50517 30.4657 7.22688C31.8004 6.30991 32.9525 5.1744 33.8681 3.87358L33.871 3.8694V3.8694Z" fill="white"/>
</svg>
