<svg width="106" height="199" viewBox="0 0 106 199" fill="none" xmlns="http://www.w3.org/2000/svg">
<path d="M57.2419 24.0091C56.962 24.2916 56.6821 24.4328 56.4022 24.5741C54.7227 25.4214 53.1832 26.2688 51.7837 27.2574C49.6843 28.6697 48.1448 30.6469 47.3051 33.0479C46.4653 35.4488 46.7452 37.7085 48.0048 39.8269C49.8243 42.934 52.7633 44.6287 56.1223 45.1937C58.5015 45.6173 60.8808 45.0524 62.7002 43.3577C63.9598 42.0866 64.7996 40.5331 64.9395 38.8383C65.0795 37.8497 64.6596 36.8611 64.2397 36.0137C63.1201 34.0365 61.5806 32.6242 59.4812 32.0593C57.6618 31.6356 54.5828 33.1891 55.0026 36.0137C55.1426 36.8611 55.8424 37.2848 56.5422 37.1435C56.962 37.0023 57.3819 36.8611 57.8018 36.5786C58.2216 36.2962 58.6415 36.0137 59.0614 35.7312C60.041 35.1663 61.0207 35.1663 62.1404 35.4488C63.26 35.8725 63.6799 36.8611 63.6799 37.9909C63.6799 39.5444 63.1201 41.098 62.2803 42.3691C60.8808 44.3463 58.7815 44.77 56.5422 44.4875C53.743 44.0638 51.5037 42.3691 49.9642 39.9681C49.4044 38.9795 48.9845 37.8497 48.8446 36.7198C48.4247 33.6128 49.6843 31.0706 51.6437 28.811C53.1832 27.1162 55.0026 25.8451 57.2419 25.139C59.6212 24.4328 62.1404 24.2916 64.5196 24.5741C65.4993 24.7153 66.3391 24.7153 67.3187 24.7153C68.8583 24.8565 70.5377 24.9977 72.0772 25.139C74.4565 25.4214 76.8357 25.8451 79.215 26.5513C82.1541 27.3987 85.0931 28.3873 87.7523 29.7996C91.5311 31.7768 94.89 34.3189 97.6892 37.5672C100.068 40.3918 101.888 43.4989 103.147 47.0296C103.847 48.7244 104.407 50.5604 104.687 52.2552C104.967 54.2324 105.107 56.0684 104.827 58.0456C104.687 60.1641 104.267 62.4237 103.847 64.5422C103.427 66.5194 102.868 68.4966 102.308 70.4739C100.908 75.2757 99.2287 79.9363 97.4093 84.5969C96.1497 87.5627 94.89 90.5285 93.4905 93.4944C92.6508 95.4716 91.6711 97.3076 90.6914 99.2848C89.2918 101.968 87.7523 104.51 86.3527 107.194C85.373 108.888 84.2534 110.301 82.8538 111.572C80.6146 113.69 78.0954 115.526 75.4362 117.221C73.1969 118.633 70.6777 119.763 68.1585 120.611C65.0795 121.599 61.8605 122.447 58.6415 123.011C56.6821 123.294 54.7227 123.576 52.7633 123.718C48.1448 124.283 43.3863 124.141 38.7678 124C36.8084 124 34.709 123.718 32.6097 123.576C29.1108 123.294 25.6119 123.011 22.253 121.74C19.174 120.611 16.3748 118.916 13.9956 116.515C11.3364 113.832 9.09713 110.866 7.41766 107.335C6.57792 105.64 6.15806 103.945 5.59823 102.251C4.47859 98.4374 3.35894 94.483 2.37924 90.6698C1.53951 87.4215 0.699775 84.1732 0.279907 80.9249C-4.27351e-06 79.2301 0 77.5354 0 75.8406C0 72.4511 0 69.0616 0 65.672C0 64.401 -4.27351e-06 63.1299 0.279907 61.8588C0.419863 61.1527 0.419866 60.3053 0.419866 59.5991C0.559822 58.0456 0.839734 56.6333 1.11965 55.0798C1.53951 52.5376 2.09934 50.1367 2.93907 47.7358C3.91876 44.6287 5.31832 41.5217 7.13774 38.8383C8.67726 36.4374 10.6366 34.1777 12.8759 32.3417C14.4154 31.0706 16.0949 29.7996 18.0543 28.9522C20.7135 27.6811 23.5126 26.8337 26.3117 26.2688C28.411 25.7039 30.6503 25.4214 32.8896 24.9977C34.0093 24.8565 35.2689 24.7153 36.3885 24.5741C38.068 24.4328 39.7475 24.1504 41.4269 24.0091C43.2463 23.8679 45.0658 23.7267 47.0252 23.7267C48.1448 23.7267 49.2645 23.4442 50.3841 23.5854C52.3435 23.7267 54.3029 23.7267 56.2622 24.0091C56.8221 23.8679 57.102 23.8679 57.2419 24.0091ZM65.2194 95.7541H65.0795C63.8199 97.59 62.9801 99.426 63.4 101.686C63.6799 103.239 64.3797 104.228 65.9192 104.652C66.3391 104.793 66.619 104.793 67.0388 104.793C69.838 105.216 72.2172 104.087 74.3165 102.392C75.1563 101.686 75.8561 100.838 76.2759 99.8497C77.1157 98.0137 76.5558 94.9067 74.0366 93.2119C71.5174 91.5172 68.2984 91.6584 65.9192 94.7654C65.6393 95.1891 65.3594 95.4716 65.2194 95.7541ZM24.3523 105.64C24.9121 105.64 25.7519 105.64 26.5916 105.358C27.5713 105.075 28.411 104.369 28.6909 103.38C28.9709 102.392 29.1108 101.403 28.8309 100.415C28.2711 97.8725 26.8715 95.7541 24.9121 94.2005C23.9324 93.4944 22.9528 92.9295 21.6932 92.9295C19.5938 92.9295 17.7744 93.7768 16.6547 95.6128C15.2552 97.59 15.1152 99.991 16.9347 102.109C17.3545 102.533 17.6344 102.957 18.0543 103.239C19.8737 104.652 21.6932 105.64 24.3523 105.64ZM20.7135 113.832C20.7135 113.408 20.2936 112.984 19.8737 112.984C19.5938 112.984 19.034 113.549 19.034 113.832C19.034 114.114 19.5938 114.679 19.8737 114.679C20.4335 114.82 20.7135 114.396 20.7135 113.832ZM74.5965 112.278C75.0163 112.278 75.4362 111.854 75.2962 111.431C75.2962 111.007 74.8764 110.724 74.4565 110.724C74.0366 110.724 73.7567 111.148 73.7567 111.713C73.8967 111.996 74.3165 112.278 74.5965 112.278ZM27.2914 119.057C27.7113 119.057 27.9912 118.775 27.9912 118.21C27.9912 117.786 27.7113 117.362 27.2914 117.362C26.8715 117.362 26.4517 117.786 26.4517 118.21C26.5916 118.775 26.8715 119.057 27.2914 119.057ZM24.6322 113.267C25.0521 113.267 25.332 112.843 25.332 112.56C25.332 112.137 25.0521 111.713 24.6322 111.713C24.2124 111.713 23.7925 111.996 23.7925 112.56C23.9324 112.843 24.2124 113.267 24.6322 113.267ZM66.7589 112.702C66.3391 112.702 66.0592 112.984 66.0592 113.549C66.0592 114.114 66.1991 114.255 66.7589 114.255C67.1788 114.255 67.5987 113.973 67.5987 113.408C67.5987 112.984 67.1788 112.702 66.7589 112.702ZM71.7973 116.797C72.2172 116.797 72.4971 116.515 72.4971 116.091C72.4971 115.668 72.2172 115.244 71.7973 115.244C71.3775 115.244 70.9576 115.668 71.0976 115.95C70.9576 116.515 71.3775 116.797 71.7973 116.797Z" fill="#FED4BC"/>
<path d="M30.7905 139.535C31.0704 140.1 31.3503 140.665 31.6303 141.23C32.7499 143.913 34.1495 146.455 35.689 148.998C39.0479 154.364 43.6664 157.754 49.8245 158.884C56.9622 160.155 63.2603 158.319 68.7185 153.658C70.8179 151.963 72.0775 149.845 73.0571 147.444C73.617 146.032 74.1768 144.619 74.4567 143.066C74.7366 143.066 74.7366 143.348 74.7366 143.631C75.2964 145.467 76.1362 147.303 76.836 149.139C78.5154 153.093 80.6148 156.765 82.4342 160.72C82.994 161.991 83.5538 163.262 84.1137 164.533C84.3936 165.38 84.2536 166.086 83.8337 166.793C82.8541 168.346 81.4545 169.617 79.915 170.606C77.2558 172.301 74.3168 173.289 71.3777 174.278C70.9578 174.419 70.6779 174.419 70.258 174.56C69.4183 174.843 69.4183 174.984 69.6982 175.831C70.258 177.244 70.8179 178.656 71.3777 180.068C72.9172 183.74 74.4567 187.553 75.7163 191.367C76.1362 192.496 76.4161 193.626 76.556 194.756C76.696 195.745 76.4161 196.31 75.5764 196.733C75.2964 196.875 74.8766 197.016 74.5967 197.016C73.3371 197.157 72.2174 197.44 70.9578 197.157C70.398 197.016 69.9781 196.733 69.5583 196.31C68.5786 195.039 68.0187 193.626 67.4589 192.073C65.6395 187.13 64.1 182.045 62.8404 176.961C62.5605 175.973 62.5605 175.973 61.7207 176.114C60.0413 176.255 58.2218 176.537 56.5424 176.679C55.7026 176.82 54.8629 176.679 53.8832 176.82C52.9035 176.82 52.7636 176.961 53.0435 177.95C53.1834 179.08 53.4633 180.068 53.6033 181.198C54.7229 186.424 55.9826 191.649 57.3821 196.733C57.662 197.722 57.662 198.004 56.6823 198.428C55.1428 199.134 53.4633 199.134 51.9238 198.711C51.2241 198.569 50.8042 198.146 50.3843 197.44C49.6845 195.886 49.2647 194.332 48.9848 192.779C48.145 189.389 47.5852 186.141 47.0254 182.752C46.7455 181.057 46.4656 179.221 46.1857 177.526C46.0457 177.102 45.9057 176.961 45.4859 176.961C44.5062 177.244 43.5265 177.102 42.6868 177.102C42.4068 177.102 42.1269 177.102 41.7071 177.102C39.0479 177.244 36.2488 176.961 33.5896 176.961C33.0298 176.961 32.6099 176.82 32.0501 176.82C31.7702 176.82 31.4903 176.537 31.3503 176.396C31.0704 175.973 30.9305 175.549 30.7905 174.984C30.2307 172.442 29.6709 170.041 29.391 167.499C28.9711 163.544 28.9711 159.731 29.111 155.777C29.111 154.082 29.251 152.387 29.5309 150.692C29.6709 149.28 29.8108 147.727 29.9508 146.314C30.2307 144.337 30.3707 142.36 30.6506 140.241C30.6506 139.535 30.6506 139.535 30.7905 139.535Z" fill="#70BEBB"/>
<path d="M68.4381 122.446C68.9979 123.294 69.1378 124.141 69.4177 124.988C70.8173 128.943 72.0769 132.756 73.1965 136.711C73.6164 138.264 73.6164 139.818 73.3365 141.371C72.6367 144.478 71.5171 147.444 69.5577 149.986C67.8782 152.105 65.7789 153.941 63.3996 155.212C60.7405 156.624 57.9414 157.471 55.0023 157.754C50.1038 158.036 45.4853 156.765 41.4266 153.799C38.9074 151.963 37.2279 149.562 35.6884 147.02C34.5688 145.184 33.729 143.207 32.8893 141.371C32.3295 140.241 31.7696 139.111 31.2098 137.982C30.9299 137.417 30.79 136.852 30.9299 136.146C31.4897 133.039 32.0496 129.79 32.7493 126.683L32.8893 126.542C33.1692 126.824 33.1692 127.248 33.1692 127.531C34.1489 131.485 35.9683 134.875 38.9074 137.699C40.8668 139.535 42.9661 141.23 45.7652 141.795C48.1445 142.36 50.5237 141.936 52.763 140.947C55.1423 139.959 57.1016 138.405 59.061 136.711C61.4403 134.451 63.3996 131.909 65.2191 129.225C66.1988 127.813 66.7586 126.118 67.3184 124.565C67.8782 123.859 68.0182 123.152 68.4381 122.446Z" fill="#70BEBB"/>
<path d="M96.7094 121.176C97.829 120.893 98.8087 120.47 99.9284 120.187C100.908 120.046 102.028 119.905 103.007 120.187C105.247 120.611 106.506 122.588 105.807 125.13C105.247 127.107 103.987 128.661 102.168 129.791C101.048 130.497 99.7884 131.062 98.5288 131.203C98.2489 131.203 97.969 131.344 97.6891 131.485C97.829 131.909 98.1089 132.05 98.3889 132.333C99.5085 133.321 99.7884 134.451 99.3686 135.864C98.9487 137.276 98.1089 138.547 96.9893 139.536C94.75 141.513 92.0908 142.501 89.2917 142.784C86.6326 143.066 84.1134 142.784 81.5941 142.36C81.4542 142.36 81.3142 142.219 81.3142 142.219C81.4542 141.795 81.8741 141.513 82.2939 141.372C82.9937 140.948 83.5535 140.383 84.2533 139.959C85.6529 138.829 86.0727 137.276 85.7928 135.44C85.6529 134.875 85.373 134.31 85.093 133.886C84.8131 133.604 84.9531 133.463 85.233 133.18C85.7928 132.757 86.2127 132.474 86.6326 132.05C87.6123 131.203 88.312 130.214 88.7319 128.943C89.2917 127.249 88.5919 125.695 86.9125 124.989C86.0727 124.565 85.093 124.424 84.2533 124.424C84.1134 124.424 83.9734 124.424 83.8335 124.283C83.6935 124 83.8334 123.859 83.9734 123.577C84.1134 123.012 84.2533 122.447 84.3933 121.882C84.3933 120.47 83.5535 119.481 82.154 119.481C81.3142 119.481 80.4745 119.622 79.6348 119.763C79.4948 119.763 79.3549 119.763 79.2149 119.763C79.0749 119.481 79.3549 119.34 79.4948 119.198C82.8538 116.374 86.4926 113.832 90.8312 112.419C92.3708 111.996 93.9103 111.572 95.5897 111.713C96.5694 111.713 97.5491 111.996 98.3889 112.419C100.068 113.267 100.628 114.679 100.208 116.515C99.7884 117.786 99.0886 118.916 98.2489 119.905C97.6891 120.187 97.2692 120.611 96.7094 121.176C96.5694 121.176 96.5694 121.176 96.7094 121.176C96.5694 121.317 96.7094 121.317 96.7094 121.176Z" fill="#FFC95E"/>
<path d="M20.9935 140.947C20.7136 141.653 20.5737 142.218 20.4337 142.783C20.0139 144.478 20.8536 146.314 22.3931 147.02C22.813 147.303 23.2328 147.444 23.7927 147.585C24.2125 147.726 24.4924 147.868 24.7723 148.15C24.6324 148.574 24.3525 148.574 24.2125 148.715C21.8333 150.127 19.3141 151.257 16.515 151.681C13.9958 151.963 11.7565 151.822 9.65713 150.127C7.97766 148.856 7.41783 146.455 8.67744 144.619C8.95735 144.337 9.23726 144.054 9.37721 143.489C8.95735 143.348 8.67744 143.489 8.25757 143.489C6.29819 143.772 4.47877 143.348 2.93925 141.936C1.25978 140.382 0.699959 137.84 2.23947 135.722C2.7993 134.874 3.63903 134.451 4.47876 134.027C6.01828 133.321 7.69775 133.18 9.51717 133.321C9.51717 133.038 9.23726 133.038 9.09731 132.897C8.39753 132.473 7.69775 132.05 7.13792 131.344C5.3185 129.366 5.45846 126.965 7.41784 125.271C8.67744 124.141 10.217 123.435 11.8964 123.152C15.6752 122.446 19.3141 123.293 22.813 124.706C23.5127 124.988 24.0726 125.271 24.7723 125.553C24.9123 125.694 25.1922 125.694 25.1922 125.977C24.6324 126.259 24.0726 126.259 23.3728 126.401C21.2735 126.824 20.1538 128.66 21.1335 130.779C21.2735 131.061 21.6933 131.344 21.4134 131.626C21.2735 131.909 20.8536 131.909 20.5737 132.05C19.7339 132.473 19.0342 132.897 18.4743 133.462C16.0951 135.722 17.2147 138.405 19.3141 139.535C19.7339 140.382 20.2938 140.665 20.9935 140.947Z" fill="#FFC95E"/>
<path d="M47.5848 140.1C43.5261 139.818 40.1672 138.264 37.7879 134.875C36.2484 132.615 34.9888 130.356 34.289 127.813C34.0091 126.825 33.8691 125.836 33.8691 124.848C33.8691 124.141 33.8691 124.141 34.5689 124.141C36.5283 124.283 38.3477 124.424 40.3071 124.565C40.587 124.565 40.727 124.565 41.0069 124.565C42.4064 124.565 43.666 124.565 45.0656 124.565C47.8647 124.565 50.6638 124.424 53.4629 124.141C57.9415 123.718 62.4201 123.012 66.7587 121.599C67.4585 121.317 67.4585 121.458 67.3186 122.164C67.1786 123.012 66.8987 123.859 66.4788 124.565C66.0589 125.554 65.4991 126.542 64.9393 127.39C63.3998 129.791 62.0002 132.192 60.0409 134.169C57.3817 136.852 54.4426 138.829 50.8038 139.818C49.6841 140.1 48.7044 140.242 47.5848 140.1Z" fill="#70BEBB"/>
<path d="M45.3457 0C52.3435 0 58.0816 1.12984 63.6799 3.10706C67.5986 4.51936 71.3774 6.0729 74.8763 8.47381C76.5558 9.60365 78.0953 10.8747 79.215 12.4283C79.7748 13.2756 80.1947 14.123 80.3346 15.1116C80.4746 16.1002 80.0547 17.0888 79.215 17.795C78.3752 18.3599 77.5355 18.7836 76.5558 18.9248C74.4565 19.3485 72.3571 19.631 70.2578 19.7722C69.2781 19.7722 68.2984 19.9135 67.3187 19.9135C63.6799 19.7722 59.9011 19.3485 56.2622 18.5011C52.4834 17.6538 48.7046 16.6652 45.0658 15.3941C42.9664 14.6879 40.8671 14.123 38.9077 12.9932C36.9483 11.8633 34.9889 10.451 33.5894 8.47381C32.8896 7.62643 32.4697 6.63782 32.4697 5.36674C32.4697 3.95444 33.3095 2.96583 34.4291 2.25968C36.1086 1.12984 37.928 0.56492 40.0273 0.28246C42.1267 0.14123 44.226 0 45.3457 0ZM67.7386 17.6538C68.9982 17.6538 70.8176 17.6538 72.4971 17.3713C73.6167 17.2301 74.8763 17.0888 75.996 16.6652C77.8154 16.1002 78.0953 15.1116 76.8357 13.6993C75.2962 11.8633 73.3368 10.451 71.2375 9.32119C68.7183 7.90889 66.0591 6.77905 63.26 5.79044C58.7814 4.09567 54.3028 3.10706 49.5443 2.8246C46.3254 2.54214 43.1064 2.68337 39.8874 3.10706C38.4878 3.24829 37.2282 3.81321 36.1086 4.51936C35.2688 5.08429 35.1289 5.79044 35.5488 6.63782C35.8287 7.06151 36.1086 7.62643 36.3885 7.90889C37.6481 9.32119 39.1876 10.5923 41.007 11.4396C44.0861 12.8519 47.305 13.9818 50.664 14.9704C55.9823 16.6652 61.5805 17.795 67.7386 17.6538Z" fill="#FFCA61"/>
<path d="M81.7342 133.745C82.0141 134.027 82.294 133.886 82.434 134.027C83.8335 134.451 84.5333 135.722 84.1134 137.135C83.8335 138.264 83.1337 138.971 82.294 139.677C80.7545 141.089 78.9351 142.078 76.8357 142.642C75.996 142.925 75.856 142.784 75.7161 141.936C74.5964 136.711 73.3368 131.627 71.6574 126.683C71.5174 126.26 71.5174 125.977 71.7973 125.554C73.0569 124.283 74.4565 123.153 75.856 122.023C76.4159 121.599 76.9757 121.317 77.5355 120.893C78.6552 120.328 79.7748 120.328 80.8944 120.328C81.7342 120.469 82.7139 121.176 82.294 122.588C82.0141 123.435 81.5942 124 81.0344 124.706C80.7545 125.13 80.3346 125.412 80.1947 125.836C80.1947 125.977 80.0547 126.119 80.1947 126.119C80.3346 126.26 80.4746 126.26 80.4746 126.119C80.7545 125.977 81.1744 125.836 81.4543 125.695C82.8538 125.13 84.2534 124.847 85.6529 125.695C86.6326 126.26 87.0525 127.107 86.6326 128.237C86.3527 129.084 85.7929 129.791 85.2331 130.355C84.2534 131.485 83.1337 132.474 81.8741 133.18C82.0141 133.463 81.8741 133.463 81.7342 133.745Z" fill="#FFC95E"/>
<path d="M23.6528 140.524C23.093 140.241 22.6731 140.1 22.2532 139.959C20.9936 139.535 20.0139 138.829 19.1742 137.84C18.1945 136.71 18.1945 135.439 19.3142 134.451C20.4338 133.321 21.8334 132.897 23.3729 133.18C23.5128 133.18 23.6528 133.18 23.7927 133.18C23.9327 133.18 24.0727 133.18 24.2126 133.038C24.3526 132.897 24.2126 132.615 24.0727 132.474C23.6528 132.191 23.3729 131.767 22.953 131.485C21.4135 130.214 21.5535 128.378 23.3729 127.53C24.4925 126.966 25.7521 126.966 27.0117 127.248C28.1314 127.53 29.251 128.095 30.2307 128.66C30.7905 128.943 30.9305 129.084 30.7905 129.79C30.5106 131.202 30.2307 132.474 29.9508 133.886C29.5309 136.428 29.1111 138.97 28.6912 141.371C28.4113 143.207 28.1314 145.043 27.9914 146.879C27.9914 147.303 27.7115 147.444 27.4316 147.444C25.7521 147.303 24.0727 146.879 22.6731 145.89C20.9936 144.619 21.1336 142.36 22.813 141.23C22.953 140.947 23.2329 140.665 23.6528 140.524Z" fill="#FFC95E"/>
<path d="M24.3519 105.64C21.8327 105.782 19.8733 104.652 18.0539 103.239C17.634 102.957 17.2141 102.533 16.9342 102.11C15.1148 99.9912 15.3947 97.5903 16.6543 95.6131C17.774 93.9183 19.5934 92.9297 21.6927 92.9297C22.9523 92.9297 23.932 93.4946 24.9117 94.2008C26.8711 95.7543 28.2706 97.8727 28.8305 100.415C28.9704 101.403 28.9704 102.392 28.6905 103.381C28.4106 104.511 27.5709 105.075 26.5912 105.358C25.7514 105.64 24.9117 105.64 24.3519 105.64ZM19.0336 97.0254C19.0336 96.3192 18.6137 95.7543 17.9139 95.7543C17.0742 95.7543 16.5144 96.3192 16.5144 97.0254C16.5144 97.7315 17.0742 98.2964 17.774 98.2964C18.3338 98.2964 19.1735 97.5903 19.0336 97.0254Z" fill="black"/>
<path d="M65.9194 94.9069C68.2987 91.6586 71.5177 91.5174 74.0369 93.3534C76.4161 95.0482 77.1159 98.1552 76.2762 99.9912C75.8563 100.98 75.1565 101.827 74.3168 102.533C72.2175 104.369 69.8382 105.358 67.0391 104.934C66.6192 104.934 66.3393 104.793 65.9194 104.793C64.3799 104.369 63.6801 103.381 63.4002 101.827C62.9804 99.5675 63.8201 97.5903 65.0797 95.8955H65.2197C65.2197 96.178 65.2197 96.4605 65.2197 96.6017C65.3596 97.1666 65.7795 97.4491 66.3393 97.5903C66.8991 97.5903 67.459 97.3078 67.5989 96.8842C67.8788 96.4605 67.5989 95.7543 67.179 95.3306C66.8991 94.7657 66.3393 95.0482 65.9194 94.9069Z" fill="black"/>
</svg>
