<svg width="149" height="277" xmlns="http://www.w3.org/2000/svg" fill="none">

 <g>
  <title>Layer 1</title>
  <rect id="svg_1" fill="white" height="23" width="25" y="124" x="85"/>
  <path id="svg_2" fill="#FED4BC" d="m80.2372,33.3624c-0.3924,0.3925 -0.7847,0.5888 -1.1771,0.785c-2.3541,1.1775 -4.5121,2.355 -6.4739,3.7288c-2.9427,1.9624 -5.1007,4.7099 -6.2777,8.0461c-1.1771,3.3363 -0.7847,6.4762 0.9809,9.42c2.5503,4.3174 6.6701,6.6724 11.3784,7.4574c3.335,0.5887 6.67,-0.1963 9.2204,-2.5512c1.7656,-1.7663 2.9427,-3.925 3.1388,-6.28c0.1962,-1.3737 -0.3923,-2.7475 -0.9809,-3.9249c-1.5694,-2.7475 -3.7274,-4.71 -6.67,-5.495c-2.5504,-0.5887 -6.8663,1.57 -6.2778,5.495c0.1962,1.1774 1.1771,1.7662 2.158,1.5699c0.5885,-0.1962 1.1771,-0.3925 1.7656,-0.785c0.5885,-0.3925 1.1771,-0.7849 1.7656,-1.1774c1.3733,-0.785 2.7465,-0.785 4.316,-0.3925c1.5694,0.5887 2.1579,1.9624 2.1579,3.5324c0,2.1588 -0.7847,4.3175 -1.9618,6.0837c-1.9618,2.7475 -4.9044,3.3363 -8.0433,2.9438c-3.9236,-0.5888 -7.0625,-2.9438 -9.2204,-6.28c-0.7847,-1.3737 -1.3733,-2.9437 -1.5694,-4.5137c-0.5886,-4.3175 1.177,-7.8499 3.9235,-10.9899c2.158,-2.355 4.7083,-4.1212 7.8472,-5.1025c3.335,-0.9812 6.8662,-1.1775 10.2013,-0.785c1.3732,0.1963 2.5503,0.1963 3.9236,0.1963c2.1579,0.1962 4.5121,0.3925 6.6699,0.5887c3.335,0.3925 6.67,0.9813 10.005,1.9625c4.12,1.1775 8.24,2.5512 11.967,4.5137c5.297,2.7475 10.005,6.28 13.929,10.7937c3.335,3.925 5.885,8.2424 7.651,13.1486c0.981,2.355 1.765,4.9062 2.158,7.2612c0.392,2.7475 0.588,5.2987 0.196,8.0462c-0.196,2.9437 -0.785,6.0837 -1.373,9.0274c-0.589,2.7475 -1.373,5.495 -2.158,8.2425c-1.962,6.6728 -4.316,13.1488 -6.866,19.6248c-1.766,4.121 -3.532,8.242 -5.493,12.364c-1.178,2.747 -2.551,5.298 -3.924,8.046c-1.962,3.729 -4.12,7.261 -6.082,10.99c-1.373,2.355 -2.942,4.317 -4.904,6.083c-3.139,2.944 -6.67,5.495 -10.398,7.85c-3.138,1.963 -6.6696,3.533 -10.2009,4.71c-4.3159,1.374 -8.828,2.552 -13.3401,3.337c-2.7465,0.392 -5.493,0.785 -8.2395,0.981c-6.474,0.785 -13.144,0.589 -19.6179,0.392c-2.7465,0 -5.6892,-0.392 -8.6319,-0.588c-4.9045,-0.393 -9.809,-0.785 -14.5172,-2.552c-4.316,-1.57 -8.2396,-3.925 -11.5746,-7.261c-3.7274,-3.729 -6.8663,-7.85 -9.2204,-12.756c-1.17709,-2.355 -1.76563,-4.71 -2.55034,-7.065c-1.56943,-5.299 -3.13887,-10.794 -4.51212,-16.092c-1.17708,-4.514 -2.35415,-9.028 -2.94269,-13.541c-0.39236,-2.355 -0.39235,-4.71 -0.39235,-7.065c0,-4.71 0,-9.4203 0,-14.1303c0,-1.7662 -0.00001,-3.5325 0.39235,-5.2987c0.19618,-0.9812 0.19618,-2.1587 0.19618,-3.14c0.19618,-2.1587 0.58854,-4.1212 0.9809,-6.2799c0.58854,-3.5325 1.37325,-6.8687 2.55032,-10.2049c1.37326,-4.3175 3.33505,-8.635 5.88535,-12.3637c2.158,-3.3362 4.9045,-6.4762 8.0434,-9.0274c2.1579,-1.7662 4.5121,-3.5325 7.2586,-4.71c3.7274,-1.7662 7.651,-2.9437 11.5745,-3.7287c2.9427,-0.785 6.0816,-1.1775 9.2205,-1.7662c1.5694,-0.1963 3.335,-0.3925 4.9044,-0.5888c2.3542,-0.1962 4.7083,-0.5887 7.0625,-0.785c2.5503,-0.1962 5.1006,-0.3925 7.8471,-0.3925c1.5695,0 3.1389,-0.3924 4.7083,-0.1962c2.7465,0.1962 5.493,0.1962 8.2395,0.5887c0.7847,-0.1962 1.1771,-0.1962 1.3733,0zm11.1822,99.6946l-0.1962,0c-1.7656,2.551 -2.9427,5.102 -2.3541,8.242c0.3923,2.159 1.3732,3.533 3.5312,4.121c0.5885,0.197 0.9809,0.197 1.5694,0.197c3.9236,0.588 7.2583,-0.982 10.2013,-3.337c1.177,-0.981 2.158,-2.158 2.747,-3.532c1.177,-2.551 0.392,-6.869 -3.139,-9.224c-3.532,-2.355 -8.0437,-2.159 -11.3787,2.159c-0.3924,0.589 -0.7847,0.981 -0.9809,1.374zm-57.2843,13.737c0.7848,0 1.9618,0 3.1389,-0.393c1.3733,-0.392 2.5503,-1.373 2.9427,-2.747c0.3923,-1.374 0.5885,-2.747 0.1962,-4.121c-0.7848,-3.533 -2.7465,-6.476 -5.4931,-8.635c-1.3732,-0.981 -2.7465,-1.766 -4.5121,-1.766c-2.9426,0 -5.493,1.177 -7.0624,3.728c-1.9618,2.748 -2.158,6.084 0.3923,9.028c0.5886,0.589 0.9809,1.177 1.5695,1.57c2.5503,1.962 5.1006,3.336 8.828,3.336zm-5.1006,11.382c0,-0.588 -0.5886,-1.177 -1.1771,-1.177c-0.3924,0 -1.1771,0.785 -1.1771,1.177c0,0.393 0.7847,1.178 1.1771,1.178c0.7847,0.196 1.1771,-0.393 1.1771,-1.178zm75.5285,-2.158c0.589,0 1.177,-0.589 0.981,-1.178c0,-0.589 -0.588,-0.981 -1.177,-0.981c-0.588,0 -0.981,0.589 -0.981,1.374c0.196,0.392 0.785,0.785 1.177,0.785zm-66.3081,9.42c0.5885,0 0.9809,-0.393 0.9809,-1.178c0,-0.589 -0.3924,-1.177 -0.9809,-1.177c-0.5885,0 -1.1771,0.588 -1.1771,1.177c0.1962,0.785 0.5886,1.178 1.1771,1.178zm-3.7274,-8.047c0.5885,0 0.9809,-0.588 0.9809,-0.981c0,-0.589 -0.3924,-1.177 -0.9809,-1.177c-0.5885,0 -1.1771,0.392 -1.1771,1.177c0.1962,0.393 0.5886,0.981 1.1771,0.981zm59.0499,-0.785c-0.5886,0 -0.9809,0.393 -0.9809,1.178c0,0.785 0.1961,0.981 0.9809,0.981c0.5885,0 1.177,-0.392 1.177,-1.177c0,-0.589 -0.5885,-0.982 -1.177,-0.982zm7.0626,5.692c0.588,0 0.981,-0.393 0.981,-0.982c0,-0.588 -0.393,-1.177 -0.981,-1.177c-0.589,0 -1.1773,0.589 -0.9811,0.981c-0.1962,0.785 0.3921,1.178 0.9811,1.178z"/>
  <path id="svg_3" fill="#70BEBB" d="m43.1595,193.894c0.3923,0.785 0.7847,1.57 1.177,2.355c1.5695,3.728 3.5313,7.261 5.6892,10.793c4.7083,7.458 11.1822,12.168 19.8141,13.738c10.0051,1.766 18.8332,-0.785 26.4841,-7.262c2.9427,-2.355 4.7081,-5.298 6.0811,-8.635c0.785,-1.962 1.57,-3.925 1.962,-6.083c0.393,0 0.393,0.392 0.393,0.785c0.784,2.551 1.961,5.102 2.942,7.653c2.354,5.495 5.297,10.598 7.847,16.093c0.785,1.766 1.57,3.532 2.355,5.299c0.392,1.177 0.196,2.158 -0.393,3.14c-1.373,2.158 -3.335,3.924 -5.493,5.298c-3.727,2.355 -7.847,3.729 -11.967,5.103c-0.5882,0.196 -0.9806,0.196 -1.5691,0.392c-1.1771,0.393 -1.1771,0.589 -0.7847,1.766c0.7847,1.963 1.5694,3.925 2.3538,5.888c2.158,5.102 4.316,10.401 6.082,15.7c0.588,1.57 0.981,3.14 1.177,4.71c0.196,1.373 -0.196,2.158 -1.373,2.747c-0.393,0.196 -0.981,0.393 -1.374,0.393c-1.765,0.196 -3.335,0.588 -5.1002,0.196c-0.7847,-0.196 -1.3733,-0.589 -1.9618,-1.178c-1.3733,-1.766 -2.158,-3.728 -2.9427,-5.887c-2.5503,-6.869 -4.7083,-13.934 -6.4739,-20.999c-0.3923,-1.373 -0.3923,-1.373 -1.5694,-1.177c-2.3542,0.196 -4.9045,0.589 -7.2586,0.785c-1.1771,0.196 -2.3542,0 -3.7274,0.196c-1.3733,0 -1.5695,0.196 -1.1771,1.57c0.1962,1.57 0.5885,2.944 0.7847,4.514c1.5694,7.261 3.3351,14.522 5.2968,21.587c0.3924,1.374 0.3924,1.766 -0.9808,2.355c-2.158,0.981 -4.5122,0.981 -6.6701,0.393c-0.9809,-0.197 -1.5695,-0.785 -2.158,-1.767c-0.9809,-2.158 -1.5694,-4.317 -1.9618,-6.476c-1.1771,-4.71 -1.9618,-9.223 -2.7465,-13.933c-0.3923,-2.355 -0.7847,-4.907 -1.1771,-7.262c-0.1961,-0.588 -0.3923,-0.785 -0.9809,-0.785c-1.3732,0.393 -2.7465,0.197 -3.9235,0.197c-0.3924,0 -0.7848,0 -1.3733,0c-3.7274,0.196 -7.651,-0.197 -11.3784,-0.197c-0.7847,0 -1.3732,-0.196 -2.1579,-0.196c-0.3924,0 -0.7847,-0.392 -0.9809,-0.589c-0.3924,-0.588 -0.5886,-1.177 -0.7847,-1.962c-0.7847,-3.533 -1.5695,-6.869 -1.9618,-10.401c-0.5886,-5.495 -0.5886,-10.794 -0.3924,-16.289c0,-2.355 0.1962,-4.71 0.5886,-7.065c0.1961,-1.962 0.3923,-4.121 0.5885,-6.084c0.3924,-2.747 0.5885,-5.494 0.9809,-8.438c0,-0.981 0,-0.981 0.1962,-0.981z"/>
  <path id="svg_4" fill="#70BEBB" d="m95.9317,170.147c0.7847,1.178 0.9809,2.355 1.3733,3.533c1.9618,5.495 3.727,10.794 5.297,16.289c0.588,2.158 0.588,4.317 0.196,6.476c-0.981,4.317 -2.55,8.438 -5.2969,11.971c-2.3541,2.944 -5.2968,5.495 -8.6318,7.261c-3.7274,1.963 -7.651,3.14 -11.7708,3.533c-6.8662,0.392 -13.3401,-1.374 -19.0293,-5.495c-3.5312,-2.552 -5.8854,-5.888 -8.0433,-9.42c-1.5695,-2.552 -2.7465,-5.299 -3.9236,-7.85c-0.7847,-1.57 -1.5695,-3.14 -2.3542,-4.71c-0.3923,-0.785 -0.5885,-1.57 -0.3923,-2.551c0.7847,-4.318 1.5694,-8.832 2.5503,-13.149l0.1962,-0.196c0.3923,0.392 0.3923,0.981 0.3923,1.373c1.3733,5.495 3.9236,10.205 8.0434,14.13c2.7465,2.552 5.6892,4.906 9.6127,5.691c3.3351,0.785 6.6701,0.197 9.809,-1.177c3.335,-1.374 6.0815,-3.532 8.828,-5.887c3.3351,-3.14 6.0816,-6.673 8.6319,-10.402c1.3733,-1.962 2.158,-4.317 2.9427,-6.476c0.7847,-0.981 0.9809,-1.962 1.5694,-2.944z"/>
  <path id="svg_5" fill="#FFC95E" d="m135.56,168.381c1.569,-0.393 2.942,-0.981 4.512,-1.374c1.373,-0.196 2.943,-0.392 4.316,0c3.139,0.589 4.904,3.336 3.923,6.869c-0.784,2.747 -2.55,4.906 -5.1,6.476c-1.57,0.981 -3.335,1.766 -5.101,1.963c-0.392,0 -0.785,0.196 -1.177,0.392c0.196,0.589 0.589,0.785 0.981,1.178c1.569,1.373 1.962,2.943 1.373,4.906c-0.588,1.962 -1.765,3.729 -3.335,5.102c-3.139,2.748 -6.866,4.121 -10.79,4.514c-3.727,0.392 -7.258,0 -10.79,-0.589c-0.196,0 -0.392,-0.196 -0.392,-0.196c0.196,-0.589 0.785,-0.981 1.373,-1.178c0.981,-0.588 1.766,-1.373 2.747,-1.962c1.962,-1.57 2.55,-3.729 2.158,-6.28c-0.196,-0.785 -0.589,-1.57 -0.981,-2.159c-0.392,-0.392 -0.196,-0.588 0.196,-0.981c0.785,-0.589 1.373,-0.981 1.962,-1.57c1.373,-1.177 2.354,-2.551 2.943,-4.317c0.784,-2.355 -0.197,-4.514 -2.551,-5.495c-1.177,-0.589 -2.55,-0.785 -3.727,-0.785c-0.196,0 -0.393,0 -0.589,-0.197c-0.196,-0.392 0,-0.588 0.196,-0.981c0.197,-0.785 0.393,-1.57 0.589,-2.355c0,-1.962 -1.177,-3.336 -3.139,-3.336c-1.177,0 -2.354,0.196 -3.531,0.392c-0.196,0 -0.392,0 -0.589,0c-0.196,-0.392 0.197,-0.588 0.393,-0.784c4.708,-3.925 9.809,-7.458 15.89,-9.42c2.158,-0.589 4.316,-1.178 6.67,-0.982c1.374,0 2.747,0.393 3.924,0.982c2.354,1.177 3.139,3.14 2.55,5.691c-0.588,1.766 -1.569,3.336 -2.746,4.71c-0.785,0.392 -1.374,0.981 -2.158,1.766c-0.196,0 -0.196,0 0,0c-0.196,0.196 0,0.196 0,0z"/>
  <path id="svg_6" fill="#FFC95E" d="m29.4266,195.856c-0.3923,0.981 -0.5885,1.766 -0.7847,2.551c-0.5885,2.355 0.5886,4.906 2.7465,5.888c0.5886,0.392 1.1771,0.588 1.9618,0.785c0.5886,0.196 0.9809,0.392 1.3733,0.785c-0.1962,0.588 -0.5886,0.588 -0.7848,0.785c-3.335,1.962 -6.8662,3.532 -10.7898,4.121c-3.5312,0.392 -6.6701,0.196 -9.6128,-2.159c-2.3541,-1.766 -3.1388,-5.102 -1.3732,-7.654c0.3924,-0.392 0.7847,-0.785 0.9809,-1.57c-0.5885,-0.196 -0.9809,0 -1.5694,0c-2.74654,0.393 -5.29687,-0.196 -7.45484,-2.158c-2.35414,-2.159 -3.13886,-5.692 -0.98089,-8.635c0.78472,-1.178 1.96179,-1.767 3.13886,-2.355c2.15797,-0.982 4.51207,-1.178 7.06247,-0.982c0,-0.392 -0.3924,-0.392 -0.5886,-0.588c-0.9809,-0.589 -1.9618,-1.178 -2.7465,-2.159c-2.55029,-2.747 -2.35411,-6.084 0.3924,-8.439c1.7656,-1.57 3.9236,-2.551 6.2777,-2.943c5.2968,-0.982 10.3975,0.196 15.302,2.158c0.9809,0.393 1.7656,0.785 2.7465,1.178c0.1961,0.196 0.5885,0.196 0.5885,0.589c-0.7847,0.392 -1.5694,0.392 -2.5503,0.588c-2.9427,0.589 -4.5121,3.14 -3.1389,6.084c0.1962,0.392 0.7847,0.785 0.3924,1.177c-0.1962,0.393 -0.7847,0.393 -1.1771,0.589c-1.1771,0.589 -2.158,1.178 -2.9427,1.963c-3.335,3.14 -1.7656,6.868 1.1771,8.438c0.5885,1.178 1.3732,1.57 2.3541,1.963z"/>
  <path id="svg_7" fill="#70BEBB" d="m66.7011,194.678c-5.6892,-0.392 -10.3975,-2.551 -13.7325,-7.261c-2.158,-3.14 -3.9236,-6.28 -4.9045,-9.812c-0.3923,-1.374 -0.5885,-2.748 -0.5885,-4.121c0,-0.982 0,-0.982 0.9809,-0.982c2.7465,0.197 5.2968,0.393 8.0433,0.589c0.3924,0 0.5885,0 0.9809,0c1.9618,0 3.7274,0 5.6892,0c3.9236,0 7.8471,-0.196 11.7707,-0.589c6.2777,-0.588 12.5554,-1.57 18.637,-3.532c0.9809,-0.393 0.9809,-0.196 0.7847,0.785c-0.1962,1.177 -0.5885,2.355 -1.1771,3.336c-0.5885,1.374 -1.3732,2.747 -2.1579,3.925c-2.158,3.336 -4.1198,6.672 -6.8663,9.42c-3.7274,3.729 -7.8471,6.476 -12.9478,7.85c-1.5694,0.392 -2.9427,0.589 -4.5121,0.392z"/>
  <path id="svg_8" fill="#FFCA61" d="m63.5621,0c9.809,0 17.8523,1.56999 25.6995,4.31746c5.493,1.96249 10.7894,4.12122 15.6944,7.45744c2.354,1.57 4.512,3.3362 6.081,5.495c0.785,1.1774 1.374,2.3549 1.57,3.7287c0.196,1.3737 -0.392,2.7474 -1.57,3.7287c-1.177,0.785 -2.354,1.3737 -3.727,1.57c-2.943,0.5887 -5.885,0.9812 -8.828,1.1775c-1.3733,0 -2.7465,0.1962 -4.1198,0.1962c-5.1006,-0.1962 -10.3975,-0.785 -15.4981,-1.9625c-5.2968,-1.1775 -10.5937,-2.5512 -15.6943,-4.3174c-2.9427,-0.9813 -5.8854,-1.7663 -8.6319,-3.3363c-2.7465,-1.5699 -5.493,-3.5324 -7.4548,-6.2799c-0.9809,-1.1775 -1.5694,-2.55123 -1.5694,-4.31746c0,-1.96249 1.177,-3.33623 2.7465,-4.31747c2.3541,-1.56998 4.9045,-2.35498 7.8471,-2.74747c2.9427,-0.19625 5.8854,-0.3925 7.4548,-0.3925zm31.3887,24.531c1.7656,0 4.3159,0 6.6702,-0.3925c1.569,-0.1962 3.335,-0.3925 4.904,-0.9812c2.551,-0.785 2.943,-2.1587 1.177,-4.1212c-2.158,-2.5512 -4.904,-4.5137 -7.8468,-6.0837c-3.5312,-1.9625 -7.2586,-3.53248 -11.1822,-4.90622c-6.2777,-2.35498 -12.5554,-3.72872 -19.2255,-4.12121c-4.5121,-0.3925 -9.0242,-0.19625 -13.5363,0.39249c-1.9618,0.19625 -3.7274,0.98125 -5.2969,1.96249c-1.1771,0.78499 -1.3732,1.76623 -0.7847,2.94372c0.3924,0.58875 0.7847,1.37373 1.1771,1.76623c1.7656,1.9625 3.9236,3.7287 6.4739,4.9062c4.3159,1.9625 8.828,3.5325 13.5363,4.9062c7.4548,2.355 15.302,3.925 23.9339,3.7287z"/>
  <path id="svg_9" fill="#FFC95E" d="m114.568,185.847c0.393,0.393 0.785,0.196 0.981,0.393c1.962,0.588 2.943,2.355 2.354,4.317c-0.392,1.57 -1.373,2.551 -2.55,3.533c-2.158,1.962 -4.708,3.336 -7.651,4.121c-1.177,0.392 -1.373,0.196 -1.569,-0.981c-1.57,-7.262 -3.336,-14.327 -5.69,-21.195c-0.196,-0.589 -0.196,-0.981 0.196,-1.57c1.766,-1.766 3.728,-3.336 5.69,-4.906c0.784,-0.589 1.569,-0.982 2.354,-1.57c1.569,-0.785 3.139,-0.785 4.708,-0.785c1.177,0.196 2.55,1.177 1.962,3.14c-0.392,1.177 -0.981,1.962 -1.766,2.943c-0.392,0.589 -0.981,0.982 -1.177,1.57c0,0.197 -0.196,0.393 0,0.393c0.196,0.196 0.393,0.196 0.393,0c0.392,-0.196 0.98,-0.393 1.373,-0.589c1.962,-0.785 3.923,-1.177 5.885,0c1.373,0.785 1.962,1.963 1.373,3.533c-0.392,1.177 -1.177,2.158 -1.961,2.943c-1.374,1.57 -2.943,2.944 -4.709,3.925c0.197,0.393 0,0.393 -0.196,0.785z"/>
  <path id="svg_10" fill="#FFC95E" d="m33.154,195.267c-0.7847,-0.392 -1.3732,-0.589 -1.9618,-0.785c-1.7656,-0.589 -3.1389,-1.57 -4.3159,-2.944c-1.3733,-1.57 -1.3733,-3.336 0.1961,-4.71c1.5695,-1.569 3.5313,-2.158 5.6892,-1.766c0.1962,0 0.3924,0 0.5886,0c0.1962,0 0.3923,0 0.5885,-0.196c0.1962,-0.196 0,-0.589 -0.1962,-0.785c-0.5885,-0.392 -0.9809,-0.981 -1.5694,-1.374c-2.158,-1.766 -1.9618,-4.317 0.5885,-5.495c1.5695,-0.785 3.3351,-0.785 5.1007,-0.392c1.5694,0.392 3.1388,1.177 4.5121,1.962c0.7847,0.393 0.9809,0.589 0.7847,1.57c-0.3923,1.963 -0.7847,3.729 -1.1771,5.691c-0.5885,3.533 -1.177,7.065 -1.7656,10.402c-0.3923,2.551 -0.7847,5.102 -0.9809,7.653c0,0.589 -0.3923,0.785 -0.7847,0.785c-2.3541,-0.196 -4.7083,-0.785 -6.6701,-2.158c-2.3541,-1.767 -2.1579,-4.907 0.1962,-6.477c0.1962,-0.392 0.5886,-0.785 1.1771,-0.981z"/>
  <path id="svg_11" fill="black" d="m34.135,146.794c-3.5312,0.196 -6.2777,-1.374 -8.8281,-3.337c-0.5885,-0.392 -1.177,-0.981 -1.5694,-1.57c-2.5503,-2.943 -2.158,-6.279 -0.3924,-9.027c1.5695,-2.355 4.1198,-3.729 7.0625,-3.729c1.7656,0 3.1388,0.785 4.5121,1.767c2.7465,2.158 4.7083,5.102 5.493,8.635c0.1962,1.373 0.1962,2.747 -0.1962,4.121c-0.3923,1.57 -1.5694,2.355 -2.9427,2.747c-1.177,0.393 -2.3541,0.393 -3.1388,0.393zm-7.4548,-11.971c0,-0.982 -0.5886,-1.767 -1.5695,-1.767c-1.177,0 -1.9617,0.785 -1.9617,1.767c0,0.981 0.7847,1.766 1.7656,1.766c0.7847,0 1.9618,-0.981 1.7656,-1.766z"/>
  <path id="svg_12" fill="black" d="m92.4001,131.879c3.3351,-4.514 7.8469,-4.71 11.3789,-2.159c3.335,2.355 4.315,6.673 3.138,9.224c-0.588,1.374 -1.569,2.551 -2.746,3.532c-2.943,2.552 -6.2778,3.925 -10.2014,3.337c-0.5886,0 -0.9809,-0.197 -1.5695,-0.197c-2.1579,-0.588 -3.1388,-1.962 -3.5312,-4.121c-0.5885,-3.14 0.5886,-5.887 2.3542,-8.242l0.1961,0c0,0.392 0,0.785 0,0.981c0.1962,0.785 0.7848,1.177 1.5695,1.374c0.7847,0 1.5694,-0.393 1.7656,-0.982c0.3923,-0.588 0,-1.57 -0.5885,-2.158c-0.3924,-0.785 -1.1771,-0.393 -1.7657,-0.589z"/>
  <ellipse stroke="#ffffff" ry="1.45511" rx="1.33127" id="svg_26" cy="133.79103" cx="93.14705" fill="#ffffff"/>
 </g>
</svg>