<svg width="30" height="29" viewBox="0 0 30 29" fill="none" xmlns="http://www.w3.org/2000/svg">
<path d="M15.4611 7.0627C11.3312 7.0627 8.00008 10.269 8.00008 14.244C8.00008 18.219 11.3312 21.4252 15.4611 21.4252C19.591 21.4252 22.9222 18.219 22.9222 14.244C22.9222 10.269 19.591 7.0627 15.4611 7.0627ZM15.4611 18.9127C12.7923 18.9127 10.6105 16.819 10.6105 14.244C10.6105 11.669 12.7858 9.5752 15.4611 9.5752C18.1364 9.5752 20.3118 11.669 20.3118 14.244C20.3118 16.819 18.13 18.9127 15.4611 18.9127ZM24.9676 6.76895C24.9676 7.7002 24.1884 8.44395 23.2274 8.44395C22.2598 8.44395 21.4871 7.69395 21.4871 6.76895C21.4871 5.84395 22.2663 5.09395 23.2274 5.09395C24.1884 5.09395 24.9676 5.84395 24.9676 6.76895ZM29.9092 8.46895C29.7988 6.2252 29.2663 4.2377 27.5585 2.6002C25.8572 0.962695 23.7923 0.450195 21.4611 0.337695C19.0585 0.206445 11.8572 0.206445 9.45463 0.337695C7.12995 0.443945 5.06501 0.956446 3.35722 2.59395C1.64943 4.23145 1.12345 6.21895 1.00657 8.4627C0.870206 10.7752 0.870206 17.7065 1.00657 20.019C1.11696 22.2627 1.64943 24.2502 3.35722 25.8877C5.06501 27.5252 7.12346 28.0377 9.45463 28.1502C11.8572 28.2815 19.0585 28.2815 21.4611 28.1502C23.7923 28.044 25.8572 27.5315 27.5585 25.8877C29.2598 24.2502 29.7923 22.2627 29.9092 20.019C30.0455 17.7065 30.0455 10.7815 29.9092 8.46895ZM26.8053 22.5002C26.2988 23.7252 25.3183 24.669 24.039 25.1627C22.1235 25.894 17.578 25.7252 15.4611 25.7252C13.3442 25.7252 8.79229 25.8877 6.88319 25.1627C5.61047 24.6752 4.62995 23.7315 4.11696 22.5002C3.35722 20.6565 3.53254 16.2815 3.53254 14.244C3.53254 12.2065 3.36371 7.8252 4.11696 5.9877C4.62345 4.7627 5.60397 3.81895 6.88319 3.3252C8.79878 2.59395 13.3442 2.7627 15.4611 2.7627C17.578 2.7627 22.13 2.6002 24.039 3.3252C25.3118 3.8127 26.2923 4.75645 26.8053 5.9877C27.565 7.83145 27.3897 12.2065 27.3897 14.244C27.3897 16.2815 27.565 20.6627 26.8053 22.5002Z" fill="#03178F"/>
</svg>
