<svg width="512" height="512" viewBox="0 0 512 512" fill="none" xmlns="http://www.w3.org/2000/svg">
    <g clip-path="url(#clip0_104_91)">
        <path d="M443.153 0H68.8471C30.8239 0 0 30.8239 0 68.8471V443.153C0 481.176 30.8239 512 68.8471 512H443.153C481.176 512 512 481.176 512 443.153V68.8471C512 30.8239 481.176 0 443.153 0Z" fill="#03178F" />
        <path d="M127.82 378.71L153 313C136.374 287.118 129.832 256.032 134.614 225.645C139.397 195.257 155.172 167.684 178.944 148.16C202.716 128.637 232.83 118.523 263.567 119.738C294.305 120.953 323.526 133.414 345.682 154.753C367.838 176.093 381.387 204.826 383.755 235.496C386.124 266.166 377.147 296.639 358.529 321.127C339.912 345.615 312.95 362.414 282.764 368.334C252.577 374.254 221.268 368.882 194.78 353.24L127.82 378.71ZM200 334.34L202.27 335.76C224.393 349.417 250.785 354.407 276.367 349.771C301.949 345.135 324.911 331.2 340.835 310.648C356.758 290.097 364.516 264.382 362.616 238.453C360.716 212.524 349.292 188.214 330.543 170.203C311.794 152.193 287.045 141.754 261.061 140.896C235.077 140.039 209.694 148.823 189.798 165.559C169.902 182.295 156.901 205.798 153.295 231.545C149.69 257.293 155.736 283.463 170.27 305.02L171.84 307.36L155 351.48L200 334.34Z" fill="#FEFEFE" />
        <path d="M317.14 268.34C305.55 262.34 293.23 256.78 293.14 256.73C288.9 254.73 285.92 256.96 285 258.29L275.36 270.29C272.76 272.57 269.14 270.29 268.74 270.05C252.581 263.374 239.078 251.548 230.33 236.41C228.33 233.85 230.08 232.18 230.46 231.86C234.46 228.4 238.15 222.51 238.29 222.28C240.68 218.54 238.54 213.89 238.47 213.74L228.12 189.79C225.67 185.12 220.12 185.92 220.04 185.95H215.93C214.592 185.739 213.223 185.832 211.927 186.224C210.63 186.615 209.438 187.294 208.44 188.21C203.658 191.948 199.935 196.871 197.64 202.49C195.562 208.885 194.985 215.673 195.954 222.328C196.924 228.982 199.413 235.323 203.23 240.86C221.01 269.65 238.12 281.17 238.8 281.61C262.8 299.15 286.88 301.61 287.8 301.69C289.142 301.871 290.495 301.962 291.85 301.96C296.052 301.894 300.201 301.001 304.058 299.331C307.915 297.662 311.405 295.249 314.33 292.23C319.91 287.42 320.78 276.58 320.81 276.02C320.84 270 317.19 268.36 317.14 268.34Z" fill="#FEFEFE" />
    </g>
    <defs>
        <clipPath id="clip0_104_91">
            <rect width="512" height="512" fill="white" />
        </clipPath>
    </defs>
</svg>
    