<svg width="512" height="512" fill="none" xmlns="http://www.w3.org/2000/svg"><g clip-path="url(#clip0_104_91)"><path d="M443.153 0H68.847C30.824 0 0 30.824 0 68.847v374.306C0 481.176 30.824 512 68.847 512h374.306C481.176 512 512 481.176 512 443.153V68.847C512 30.824 481.176 0 443.153 0z" fill="#03178F"/><path d="M127.82 378.71L153 313a125.523 125.523 0 0125.944-164.84 125.524 125.524 0 01166.738 6.593 125.522 125.522 0 01-62.918 213.581 125.524 125.524 0 01-87.984-15.094l-66.96 25.47zM200 334.34l2.27 1.42a105.309 105.309 0 00160.346-97.307 105.312 105.312 0 00-101.555-97.557A105.312 105.312 0 00170.27 305.02l1.57 2.34L155 351.48l45-17.14z" fill="#FEFEFE"/><path d="M317.14 268.34c-11.59-6-23.91-11.56-24-11.61-4.24-2-7.22.23-8.14 1.56l-9.64 12c-2.6 2.28-6.22 0-6.62-.24a79.363 79.363 0 01-38.41-33.64c-2-2.56-.25-4.23.13-4.55 4-3.46 7.69-9.35 7.83-9.58 2.39-3.74.25-8.39.18-8.54l-10.35-23.95c-2.45-4.67-8-3.87-8.08-3.84h-4.11a8.998 8.998 0 00-7.49 2.26 34.852 34.852 0 00-10.8 14.28 43.776 43.776 0 005.59 38.37c17.78 28.79 34.89 40.31 35.57 40.75 24 17.54 48.08 20 49 20.08a29.97 29.97 0 004.05.27 31.991 31.991 0 0022.48-9.73c5.58-4.81 6.45-15.65 6.48-16.21.03-6.02-3.62-7.66-3.67-7.68z" fill="#FEFEFE"/></g><defs><clipPath id="clip0_104_91"><path fill="#fff" d="M0 0h512v512H0z"/></clipPath></defs></svg>