<svg width="106" height="199" fill="none" xmlns="http://www.w3.org/2000/svg"><path d="M57.242 24.01c-.28.282-.56.423-.84.564-1.68.847-3.219 1.695-4.618 2.683a11.455 11.455 0 00-4.479 5.79c-.84 2.402-.56 4.662.7 6.78 1.82 3.107 4.758 4.802 8.117 5.367 2.38.423 4.759-.142 6.578-1.836 1.26-1.271 2.1-2.825 2.24-4.52.14-.988-.28-1.977-.7-2.824-1.12-1.978-2.66-3.39-4.759-3.955-1.82-.423-4.898 1.13-4.478 3.955.14.847.84 1.27 1.54 1.13.419-.142.839-.283 1.259-.565l1.26-.848c.979-.565 1.959-.565 3.078-.282 1.12.424 1.54 1.412 1.54 2.542 0 1.553-.56 3.107-1.4 4.378-1.4 1.977-3.498 2.401-5.738 2.118-2.799-.423-5.038-2.118-6.578-4.519-.56-.989-.98-2.118-1.12-3.248-.42-3.107.84-5.65 2.8-7.909 1.54-1.695 3.359-2.966 5.598-3.672 2.38-.706 4.898-.847 7.278-.565.98.141 1.82.141 2.799.141 1.54.142 3.219.283 4.758.424 2.38.282 4.759.706 7.138 1.412 2.94.848 5.878 1.836 8.537 3.249 3.78 1.977 7.138 4.519 9.937 7.767 2.379 2.825 4.199 5.932 5.458 9.463.7 1.694 1.26 3.53 1.54 5.225.28 1.977.42 3.813.14 5.79-.14 2.12-.56 4.379-.98 6.497-.42 1.977-.979 3.955-1.539 5.932-1.4 4.802-3.08 9.462-4.899 14.123-1.26 2.966-2.519 5.931-3.919 8.897-.84 1.978-1.819 3.814-2.799 5.79-1.4 2.684-2.939 5.226-4.338 7.91-.98 1.694-2.1 3.107-3.5 4.378-2.238 2.118-4.758 3.954-7.417 5.649-2.24 1.412-4.758 2.542-7.278 3.39-3.079.988-6.297 1.836-9.517 2.4-1.959.283-3.918.565-5.878.707-4.618.565-9.377.423-13.995.282-1.96 0-4.059-.282-6.158-.424-3.5-.282-6.998-.565-10.357-1.836-3.079-1.129-5.878-2.824-8.257-5.225-2.66-2.683-4.899-5.649-6.578-9.18-.84-1.695-1.26-3.39-1.82-5.084-1.12-3.814-2.24-7.768-3.219-11.581C1.54 87.42.7 84.173.28 80.925 0 79.23 0 77.535 0 75.84V65.672c0-1.271 0-2.542.28-3.813.14-.706.14-1.554.14-2.26.14-1.553.42-2.966.7-4.52.42-2.541.98-4.942 1.82-7.343.979-3.107 2.378-6.214 4.198-8.898 1.54-2.4 3.499-4.66 5.738-6.496 1.54-1.271 3.219-2.542 5.178-3.39 2.66-1.27 5.459-2.118 8.258-2.683 2.099-.565 4.338-.848 6.578-1.271 1.12-.142 2.379-.283 3.498-.424 1.68-.141 3.36-.424 5.039-.565 1.82-.141 3.639-.282 5.598-.282 1.12 0 2.24-.283 3.36-.142 1.959.142 3.918.142 5.877.424.56-.141.84-.141.98 0zm7.977 71.744h-.14c-1.26 1.836-2.099 3.672-1.679 5.932.28 1.553.98 2.542 2.52 2.966.42.141.699.141 1.119.141 2.799.423 5.178-.706 7.278-2.401.84-.706 1.54-1.554 1.959-2.542.84-1.836.28-4.943-2.24-6.638-2.519-1.695-5.738-1.554-8.117 1.553-.28.424-.56.707-.7.99zm-40.867 9.886c.56 0 1.4 0 2.24-.282.98-.283 1.819-.989 2.099-1.978.28-.988.42-1.977.14-2.965-.56-2.543-1.96-4.66-3.919-6.215-.98-.706-1.96-1.27-3.219-1.27-2.1 0-3.919.847-5.038 2.683-1.4 1.977-1.54 4.378.28 6.496.42.424.7.848 1.12 1.13 1.819 1.413 3.638 2.401 6.297 2.401zm-3.639 8.192c0-.424-.42-.848-.84-.848-.28 0-.839.565-.839.848 0 .282.56.847.84.847.56.141.84-.283.84-.847zm53.884-1.554c.42 0 .84-.424.7-.847 0-.424-.42-.707-.84-.707s-.7.424-.7.989c.14.283.56.565.84.565zm-47.306 6.779c.42 0 .7-.282.7-.847 0-.424-.28-.848-.7-.848-.42 0-.84.424-.84.848.14.565.42.847.84.847zm-2.659-5.79c.42 0 .7-.424.7-.707 0-.423-.28-.847-.7-.847-.42 0-.84.283-.84.847.14.283.42.707.84.707zm42.127-.565c-.42 0-.7.282-.7.847s.14.706.7.706c.42 0 .84-.282.84-.847 0-.424-.42-.706-.84-.706zm5.038 4.095c.42 0 .7-.282.7-.706 0-.423-.28-.847-.7-.847-.42 0-.84.424-.7.706-.14.565.28.847.7.847z" fill="#FED4BC"/><path d="M30.79 139.535l.84 1.695c1.12 2.683 2.52 5.225 4.059 7.768 3.359 5.366 7.977 8.756 14.136 9.886 7.137 1.271 13.435-.565 18.894-5.226 2.099-1.695 3.359-3.813 4.338-6.214.56-1.412 1.12-2.825 1.4-4.378.28 0 .28.282.28.565.56 1.836 1.4 3.672 2.099 5.508 1.68 3.954 3.779 7.626 5.598 11.581l1.68 3.813c.28.847.14 1.553-.28 2.26-.98 1.553-2.38 2.824-3.919 3.813-2.66 1.695-5.598 2.683-8.537 3.672-.42.141-.7.141-1.12.282-.84.283-.84.424-.56 1.271l1.68 4.237c1.54 3.672 3.079 7.485 4.338 11.299.42 1.129.7 2.259.84 3.389.14.989-.14 1.554-.98 1.977-.28.142-.7.283-.98.283-1.259.141-2.379.424-3.638.141-.56-.141-.98-.424-1.4-.847-.98-1.271-1.54-2.684-2.1-4.237a144.47 144.47 0 01-4.618-15.112c-.28-.988-.28-.988-1.12-.847-1.679.141-3.498.423-5.178.565-.84.141-1.68 0-2.659.141-.98 0-1.12.141-.84 1.13.14 1.13.42 2.118.56 3.248a278.93 278.93 0 003.78 15.535c.279.989.279 1.271-.7 1.695-1.54.706-3.22.706-4.76.283-.699-.142-1.119-.565-1.539-1.271-.7-1.554-1.12-3.108-1.4-4.661-.839-3.39-1.399-6.638-1.959-10.027-.28-1.695-.56-3.531-.84-5.226-.14-.424-.28-.565-.7-.565-.979.283-1.959.141-2.798.141h-.98c-2.66.142-5.458-.141-8.117-.141-.56 0-.98-.141-1.54-.141-.28 0-.56-.283-.7-.424-.28-.423-.42-.847-.56-1.412-.56-2.542-1.12-4.943-1.399-7.485-.42-3.955-.42-7.768-.28-11.722 0-1.695.14-3.39.42-5.085.14-1.412.28-2.965.42-4.378.28-1.977.42-3.954.7-6.073 0-.706 0-.706.14-.706z" fill="#70BEBB"/><path d="M68.438 122.446c.56.848.7 1.695.98 2.542 1.4 3.955 2.659 7.768 3.778 11.723.42 1.553.42 3.107.14 4.66-.7 3.107-1.819 6.073-3.778 8.615-1.68 2.119-3.78 3.955-6.158 5.226a22.305 22.305 0 01-8.398 2.542c-4.898.282-9.517-.989-13.575-3.955-2.52-1.836-4.2-4.237-5.739-6.779-1.12-1.836-1.959-3.813-2.799-5.649l-1.68-3.389c-.28-.565-.419-1.13-.28-1.836.56-3.107 1.12-6.356 1.82-9.463l.14-.141c.28.282.28.706.28.989.98 3.954 2.8 7.344 5.738 10.168 1.96 1.836 4.06 3.531 6.858 4.096 2.38.565 4.759.141 6.998-.848 2.38-.988 4.339-2.542 6.298-4.236 2.38-2.26 4.339-4.802 6.158-7.486.98-1.412 1.54-3.107 2.1-4.66.56-.706.7-1.413 1.12-2.119z" fill="#70BEBB"/><path d="M96.71 121.176c1.119-.283 2.099-.706 3.218-.989.98-.141 2.1-.282 3.079 0 2.24.424 3.499 2.401 2.8 4.943-.56 1.977-1.82 3.531-3.639 4.661-1.12.706-2.38 1.271-3.64 1.412-.28 0-.559.141-.839.282.14.424.42.565.7.848 1.12.988 1.4 2.118.98 3.531-.42 1.412-1.26 2.683-2.38 3.672-2.239 1.977-4.898 2.965-7.697 3.248-2.66.282-5.179 0-7.698-.424-.14 0-.28-.141-.28-.141.14-.424.56-.706.98-.847.7-.424 1.26-.989 1.96-1.413 1.399-1.13 1.819-2.683 1.539-4.519a5.245 5.245 0 00-.7-1.554c-.28-.282-.14-.423.14-.706.56-.423.98-.706 1.4-1.13.98-.847 1.679-1.836 2.099-3.107.56-1.694-.14-3.248-1.82-3.954-.84-.424-1.819-.565-2.659-.565-.14 0-.28 0-.42-.141-.14-.283 0-.424.14-.706l.42-1.695c0-1.412-.84-2.401-2.239-2.401-.84 0-1.68.141-2.52.282h-.42c-.14-.282.14-.423.28-.565 3.36-2.824 6.999-5.366 11.337-6.779 1.54-.423 3.08-.847 4.759-.706.98 0 1.96.283 2.799.706 1.679.848 2.239 2.26 1.819 4.096-.42 1.271-1.12 2.401-1.96 3.39-.559.282-.979.706-1.539 1.271-.14 0-.14 0 0 0-.14.141 0 .141 0 0zM20.994 140.947c-.28.706-.42 1.271-.56 1.836-.42 1.695.42 3.531 1.96 4.237.419.283.839.424 1.399.565.42.141.7.283.98.565-.14.424-.42.424-.56.565-2.38 1.412-4.899 2.542-7.698 2.966-2.52.282-4.758.141-6.858-1.554-1.68-1.271-2.24-3.672-.98-5.508.28-.282.56-.565.7-1.13-.42-.141-.7 0-1.12 0-1.959.283-3.778-.141-5.318-1.553-1.68-1.554-2.239-4.096-.7-6.214.56-.848 1.4-1.271 2.24-1.695 1.54-.706 3.219-.847 5.038-.706 0-.283-.28-.283-.42-.424-.7-.424-1.4-.847-1.96-1.553-1.818-1.978-1.679-4.379.28-6.073 1.26-1.13 2.8-1.836 4.48-2.119 3.778-.706 7.417.141 10.916 1.554.7.282 1.26.565 1.96.847.14.141.42.141.42.424-.56.282-1.12.282-1.82.424-2.1.423-3.22 2.259-2.24 4.378.14.282.56.565.28.847-.14.283-.56.283-.84.424-.84.423-1.539.847-2.099 1.412-2.379 2.26-1.26 4.943.84 6.073.42.847.98 1.13 1.68 1.412z" fill="#FFC95E"/><path d="M47.585 140.1c-4.059-.282-7.418-1.836-9.797-5.225-1.54-2.26-2.8-4.519-3.499-7.062-.28-.988-.42-1.977-.42-2.965 0-.707 0-.707.7-.707 1.96.142 3.779.283 5.738.424h4.759c2.799 0 5.598-.141 8.397-.424 4.478-.423 8.957-1.129 13.296-2.542.7-.282.7-.141.56.565-.14.848-.42 1.695-.84 2.401-.42.989-.98 1.977-1.54 2.825-1.54 2.401-2.939 4.802-4.898 6.779-2.66 2.683-5.598 4.66-9.237 5.649-1.12.282-2.1.424-3.22.282z" fill="#70BEBB"/><path d="M45.346 0c6.998 0 12.736 1.13 18.334 3.107 3.919 1.412 7.697 2.966 11.196 5.367 1.68 1.13 3.22 2.4 4.339 3.954.56.848.98 1.695 1.12 2.684.14.988-.28 1.977-1.12 2.683-.84.565-1.68.989-2.66 1.13a48.13 48.13 0 01-6.297.847c-.98 0-1.96.142-2.94.142-3.638-.142-7.417-.566-11.056-1.413-3.779-.847-7.557-1.836-11.196-3.107-2.1-.706-4.199-1.271-6.158-2.4-1.96-1.13-3.92-2.543-5.319-4.52-.7-.848-1.12-1.836-1.12-3.107 0-1.413.84-2.401 1.96-3.107C36.11 1.13 37.928.565 40.027.282 42.127.142 44.226 0 45.346 0zm22.393 17.654c1.26 0 3.079 0 4.758-.283 1.12-.14 2.38-.282 3.499-.706 1.82-.565 2.1-1.553.84-2.966-1.54-1.836-3.5-3.248-5.599-4.378-2.519-1.412-5.178-2.542-7.977-3.53-4.479-1.695-8.957-2.684-13.716-2.966-3.219-.283-6.438-.142-9.657.282-1.4.141-2.659.706-3.778 1.412-.84.565-.98 1.271-.56 2.119.28.424.56.988.84 1.27 1.26 1.413 2.799 2.684 4.618 3.532 3.08 1.412 6.298 2.542 9.657 3.53 5.318 1.695 10.916 2.825 17.075 2.684z" fill="#FFCA61"/><path d="M81.734 133.745c.28.282.56.141.7.282 1.4.424 2.1 1.695 1.68 3.108-.28 1.129-.98 1.836-1.82 2.542-1.54 1.412-3.359 2.401-5.458 2.965-.84.283-.98.142-1.12-.706-1.12-5.225-2.38-10.309-4.059-15.253-.14-.423-.14-.706.14-1.129 1.26-1.271 2.66-2.401 4.059-3.531.56-.424 1.12-.706 1.68-1.13 1.12-.565 2.239-.565 3.358-.565.84.141 1.82.848 1.4 2.26-.28.847-.7 1.412-1.26 2.118-.28.424-.7.706-.84 1.13 0 .141-.14.283 0 .283.14.141.28.141.28 0 .28-.142.7-.283.98-.424 1.4-.565 2.8-.848 4.199 0 .98.565 1.4 1.412.98 2.542-.28.847-.84 1.554-1.4 2.118-.98 1.13-2.1 2.119-3.359 2.825.14.283 0 .283-.14.565zM23.653 140.524a9.511 9.511 0 00-1.4-.565c-1.26-.424-2.24-1.13-3.079-2.119-.98-1.13-.98-2.401.14-3.389 1.12-1.13 2.52-1.554 4.059-1.271h.42c.14 0 .28 0 .42-.142.14-.141 0-.423-.14-.564-.42-.283-.7-.707-1.12-.989-1.54-1.271-1.4-3.107.42-3.955 1.12-.564 2.38-.564 3.639-.282 1.12.282 2.239.847 3.219 1.412.56.283.7.424.56 1.13-.28 1.412-.56 2.684-.84 4.096-.42 2.542-.84 5.084-1.26 7.485-.28 1.836-.56 3.672-.7 5.508 0 .424-.28.565-.56.565-1.679-.141-3.358-.565-4.758-1.554-1.68-1.271-1.54-3.53.14-4.66.14-.283.42-.565.84-.706z" fill="#FFC95E"/><path d="M24.352 105.64c-2.52.142-4.479-.988-6.298-2.401a4.279 4.279 0 01-1.12-1.129c-1.82-2.119-1.54-4.52-.28-6.497 1.12-1.695 2.94-2.683 5.039-2.683 1.26 0 2.239.565 3.219 1.27 1.96 1.554 3.359 3.673 3.919 6.215.14.988.14 1.977-.14 2.966-.28 1.13-1.12 1.694-2.1 1.977-.84.282-1.68.282-2.24.282zm-5.318-8.615c0-.706-.42-1.27-1.12-1.27-.84 0-1.4.564-1.4 1.27 0 .706.56 1.271 1.26 1.271.56 0 1.4-.706 1.26-1.27zM65.92 94.907c2.379-3.248 5.598-3.39 8.117-1.554 2.38 1.695 3.079 4.802 2.24 6.638-.42.989-1.12 1.836-1.96 2.542-2.1 1.836-4.479 2.825-7.278 2.401-.42 0-.7-.141-1.12-.141-1.54-.424-2.239-1.412-2.519-2.966-.42-2.26.42-4.237 1.68-5.931h.14v.706c.14.565.56.847 1.12.988.56 0 1.119-.282 1.259-.706.28-.424 0-1.13-.42-1.553-.28-.565-.84-.283-1.26-.424z" fill="#000"/></svg>