<svg width="184" height="61" viewBox="0 0 184 61" fill="none" xmlns="http://www.w3.org/2000/svg">
<g clip-path="url(#clip0_376_5265)">
<path d="M169.346 0H11.5634C10.5328 0.0148258 9.5048 0.105341 8.48805 0.270782C7.46902 0.433346 6.48287 0.753245 5.56644 1.21852C4.64016 1.67565 3.79827 2.28067 3.07538 3.00869C2.3367 3.71706 1.72352 4.54063 1.26091 5.44572C0.794369 6.34599 0.467854 7.30937 0.292161 8.30398C0.120562 9.29813 0.0331293 10.3044 0.0307541 11.3127C0.0307541 11.779 0.0307541 12.2454 0.0307541 12.6967V47.4771C0.0307541 47.9434 0.0307541 48.3947 0.0307541 48.8611C0.0331293 49.8693 0.120562 50.8756 0.292161 51.8698C0.465462 52.8698 0.792055 53.8385 1.26091 54.7431C1.72781 55.6411 2.3406 56.4591 3.07538 57.1651C3.79946 57.8877 4.64128 58.4876 5.56644 58.9402C6.48576 59.3987 7.47082 59.7183 8.48805 59.8879C9.5048 60.0534 10.5328 60.1439 11.5634 60.1587H172.437C173.467 60.1439 174.495 60.0534 175.512 59.8879C176.534 59.7162 177.523 59.3968 178.449 58.9402C179.372 58.4837 180.213 57.8842 180.94 57.1651C181.665 56.4512 182.277 55.6348 182.754 54.7431C183.216 53.8369 183.538 52.8685 183.708 51.8698C183.877 50.8751 183.969 49.8694 183.985 48.8611C183.985 48.3947 183.985 47.9434 183.985 47.4771V12.6967C183.985 12.2454 183.985 11.779 183.985 11.3127C183.969 10.3044 183.877 9.29868 183.708 8.30398C183.537 7.31006 183.216 6.34666 182.754 5.44572C181.8 3.63954 180.295 2.1678 178.449 1.23356C177.523 0.776975 176.534 0.45757 175.512 0.285825C174.495 0.120384 173.467 0.0298692 172.437 0.0150434H169.361L169.346 0Z" fill="#A6A6A6"/>
<path d="M12.9781 58.8499H11.5942C10.6323 58.8651 9.67072 58.8047 8.7187 58.6694C7.8204 58.4994 6.95425 58.195 6.15076 57.7668C5.36239 57.3776 4.64119 56.87 4.01337 56.2625C3.38461 55.649 2.86491 54.9372 2.47568 54.1564C2.06392 53.3716 1.77865 52.5292 1.62995 51.6592C1.47877 50.7285 1.39654 49.7883 1.38392 48.8461C1.38392 48.5301 1.38392 47.4621 1.38392 47.4621V12.6967C1.38392 12.6967 1.38392 11.6587 1.38392 11.3578C1.39654 10.4155 1.47877 9.47536 1.62995 8.54467C1.77071 7.66512 2.05086 6.81244 2.4603 6.01738C2.85407 5.2392 3.37327 4.52808 3.99799 3.9113C4.63193 3.30417 5.35812 2.79671 6.15076 2.40695C6.95295 2.00412 7.81397 1.72503 8.70333 1.57956C9.65875 1.42332 10.6255 1.34283 11.5942 1.33887H172.421C173.379 1.35194 174.335 1.43238 175.281 1.57956C176.175 1.72722 177.041 2.00617 177.849 2.40695C179.438 3.20382 180.734 4.46594 181.555 6.01738C181.955 6.80035 182.235 7.63673 182.385 8.49954C182.542 9.43492 182.629 10.3801 182.647 11.3277V12.6666C182.647 13.2382 182.647 13.7798 182.647 14.3214V45.8223C182.647 46.3789 182.647 46.9054 182.647 47.447V48.8461C182.629 49.7787 182.542 50.7089 182.385 51.6291C182.242 52.5033 181.962 53.3506 181.555 54.1413C181.155 54.9114 180.636 55.6166 180.017 56.2324C179.386 56.843 178.66 57.3508 177.865 57.7367C177.064 58.1776 176.197 58.4923 175.297 58.6694C174.346 58.8242 173.385 58.9047 172.421 58.9101H12.9781V58.8499Z" fill="white"/>
<path d="M38.0886 30.5382C38.1035 29.282 38.4443 28.0502 39.0791 26.9582C39.7138 25.8662 40.6217 24.9499 41.7175 24.2951C41.0207 23.3234 40.102 22.5238 39.0344 21.9598C37.9668 21.3958 36.7795 21.0828 35.5668 21.0457C32.9988 20.775 30.4924 22.5501 29.17 22.5501C27.8476 22.5501 25.8024 21.0457 23.6189 21.0457C22.2081 21.0906 20.8333 21.4926 19.6286 22.2124C18.4239 22.9322 17.4306 23.9452 16.7454 25.1526C13.8392 30.2523 15.992 37.6086 18.8367 41.7305C20.2668 43.7312 21.9121 45.9577 24.111 45.8674C26.3099 45.7772 27.0326 44.5436 29.6159 44.5436C32.1992 44.5436 32.9066 45.8674 35.1362 45.8223C37.3659 45.7772 38.8728 43.8215 40.2414 41.8057C41.2684 40.3878 42.0575 38.8186 42.5786 37.1573C41.2483 36.6075 40.113 35.6865 39.3145 34.5094C38.516 33.3322 38.0896 31.951 38.0886 30.5382Z" fill="black"/>
<path d="M33.8292 18.368C35.0761 16.9027 35.6886 15.0187 35.536 13.1179C33.63 13.3191 31.8696 14.2097 30.6 15.6151C29.9825 16.3035 29.5098 17.1042 29.209 17.9716C28.9082 18.8389 28.7852 19.7558 28.8471 20.6697C29.8012 20.6789 30.7452 20.4766 31.608 20.0779C32.4709 19.6793 33.2302 19.0947 33.8292 18.368Z" fill="black"/>
<path d="M65.0443 40.8278H57.771L56.0181 45.8824H52.9427L59.8315 27.1985H63.0453L69.9341 45.8824H66.8588L65.0443 40.8278ZM58.5245 38.4961H64.2908L61.5076 30.2974H61.4307L58.5245 38.4961Z" fill="black"/>
<path d="M84.819 39.1129C84.819 43.3401 82.4971 46.063 79.0065 46.063C78.1156 46.1016 77.2316 45.8934 76.4564 45.4623C75.6811 45.0311 75.0459 44.3946 74.6241 43.6259V50.3654H71.7025V32.3133H74.4703V34.5999C74.9185 33.8423 75.5688 33.2182 76.3515 32.7942C77.1343 32.3703 78.0201 32.1624 78.9142 32.1929C82.4971 32.1177 84.819 34.8406 84.819 39.1129ZM81.882 39.1129C81.882 36.36 80.3443 34.5999 78.2069 34.5999C76.0695 34.5999 74.5472 36.4502 74.5472 39.1129C74.5472 41.7756 76.0849 43.7012 78.2069 43.7012C80.3289 43.7012 81.882 41.8508 81.882 39.1129Z" fill="black"/>
<path d="M100.134 39.1129C100.134 43.3401 97.8278 46.063 94.3373 46.063C93.4461 46.1034 92.5614 45.8959 91.7857 45.4646C91.0101 45.0333 90.3753 44.3958 89.9549 43.6259V50.3654H87.0333V32.3133H89.8011V34.5999C90.2455 33.8424 90.8928 33.2179 91.6732 32.7938C92.4536 32.3696 93.3375 32.1619 94.2296 32.1929C97.8125 32.1177 100.134 34.8406 100.134 39.1129ZM97.1974 39.1129C97.1974 36.3599 95.752 34.5999 93.5223 34.5999C91.2927 34.5999 89.878 36.4502 89.878 39.1129C89.878 41.7756 91.3388 43.6259 93.5223 43.6259C95.7058 43.6259 97.1974 41.8207 97.1974 39.0377V39.1129Z" fill="black"/>
<path d="M110.268 40.6173C110.483 42.4676 112.313 43.626 114.881 43.626C117.449 43.626 119.017 42.4074 119.017 40.7376C119.017 39.0678 117.972 38.4209 115.496 37.8192L113.02 37.2325C109.514 36.4051 107.9 34.8105 107.9 32.208C107.9 28.9737 110.76 26.7623 114.835 26.7623C118.91 26.7623 121.647 28.9737 121.739 32.208H118.802C118.633 30.3426 117.049 29.1993 114.758 29.1993C112.467 29.1993 110.883 30.3276 110.883 31.9974C110.883 33.3062 111.882 34.0884 114.343 34.6902L116.449 35.1866C120.37 36.0892 122 37.6387 122 40.3615C122 43.8667 119.14 46.048 114.619 46.048C110.391 46.048 107.531 43.9118 107.346 40.5421L110.268 40.6173Z" fill="black"/>
<path d="M128.166 29.0338V32.2531H130.811V34.4645H128.166V41.9862C128.166 43.1446 128.689 43.6861 129.858 43.6861C130.165 43.6861 130.488 43.6861 130.796 43.6861V45.8825C130.289 45.9768 129.774 46.0221 129.258 46.0179C126.429 46.0179 125.337 44.9799 125.337 42.3322V34.4645H123.261V32.2531H125.291V29.0338H128.166Z" fill="black"/>
<path d="M132.349 39.1129C132.349 34.8255 134.917 32.1328 138.946 32.1328C142.974 32.1328 145.542 34.8255 145.542 39.1129C145.542 43.4003 143.005 46.0479 138.946 46.0479C134.886 46.0479 132.349 43.3702 132.349 39.1129ZM142.636 39.1129C142.636 36.1794 141.252 34.4344 138.946 34.4344C136.639 34.4344 135.317 36.1042 135.317 39.1129C135.317 42.1216 136.685 43.7914 139.007 43.7914C141.329 43.7914 142.698 42.0614 142.698 39.1129H142.636Z" fill="black"/>
<path d="M147.91 32.2531H150.694V34.5999C150.88 33.877 151.315 33.2387 151.925 32.7923C152.536 32.3458 153.284 32.1183 154.046 32.1478C154.377 32.1456 154.707 32.181 155.03 32.2531V34.8707C154.629 34.7089 154.202 34.6173 153.769 34.5999C153.384 34.5755 152.998 34.6267 152.634 34.7503C152.27 34.874 151.935 35.0677 151.648 35.32C151.362 35.5723 151.13 35.8781 150.966 36.2195C150.802 36.5609 150.709 36.9309 150.694 37.3077C150.694 37.4431 150.694 37.5935 150.694 37.744V45.8825H147.91V32.2531Z" fill="black"/>
<path d="M168.193 41.8809C167.808 44.348 165.348 46.048 162.211 46.048C158.151 46.048 155.645 43.3853 155.645 39.128C155.645 34.8707 158.167 32.0876 162.088 32.0876C166.009 32.0876 168.362 34.6751 168.362 38.8121V39.7598H158.52V39.9403C158.439 40.8754 158.74 41.8038 159.357 42.5227C159.973 43.2415 160.856 43.6923 161.811 43.7764H162.272C162.947 43.838 163.624 43.6854 164.202 43.3413C164.781 42.9972 165.231 42.4799 165.486 41.8659L168.193 41.8809ZM158.536 37.8042H165.502C165.552 36.9503 165.259 36.1109 164.684 35.4667C164.109 34.8224 163.298 34.4248 162.426 34.3592H162.165C161.701 34.3552 161.241 34.4409 160.811 34.6113C160.382 34.7817 159.99 35.0335 159.66 35.3522C159.33 35.6709 159.068 36.0502 158.888 36.4684C158.708 36.8866 158.615 37.3354 158.613 37.7891L158.536 37.8042Z" fill="black"/>
<path d="M58.1708 13.1329C59.2421 13.0624 60.2986 13.4084 61.1106 14.0957C61.9226 14.7831 62.4244 15.7562 62.5071 16.8035C62.5378 17.0684 62.5378 17.3359 62.5071 17.6008C62.5071 20.4591 60.9694 22.1138 58.2016 22.1138H54.8494V13.0878L58.1708 13.1329ZM56.2795 20.8351H58.0017C58.3819 20.8617 58.7637 20.8139 59.125 20.6948C59.4862 20.5756 59.8196 20.3874 60.1058 20.141C60.3919 19.8946 60.6252 19.595 60.7919 19.2597C60.9587 18.9243 61.0556 18.5598 61.0771 18.1875C61.0924 17.9972 61.0924 17.8061 61.0771 17.6158C61.129 17.2473 61.1062 16.8724 61.0098 16.5126C60.9135 16.1527 60.7455 15.815 60.5156 15.5187C60.2856 15.2225 59.9981 14.9735 59.6697 14.7861C59.3412 14.5987 58.9782 14.4766 58.6014 14.4266C58.4172 14.4116 58.232 14.4116 58.0478 14.4266H56.2795V20.8351Z" fill="black"/>
<path d="M64.0909 18.714C64.0094 17.8662 64.2754 17.0214 64.8305 16.3655C65.3856 15.7095 66.1844 15.2962 67.051 15.2164C67.9176 15.1366 68.7811 15.3969 69.4516 15.94C70.1221 16.483 70.5445 17.2644 70.6261 18.1123C70.6415 18.3126 70.6415 18.5137 70.6261 18.714C70.6533 19.5307 70.3621 20.3269 69.8114 20.9413C69.2608 21.5557 68.492 21.9422 67.6608 22.0226C66.8297 22.1029 65.9984 21.8711 65.3355 21.374C64.6726 20.877 64.2276 20.1519 64.0909 19.3458C64.0755 19.1355 64.0755 18.9243 64.0909 18.714ZM69.2114 18.714C69.2114 17.2097 68.5502 16.3973 67.3662 16.3973C66.1822 16.3973 65.5056 17.2548 65.5056 18.714C65.5056 20.1732 66.1207 21.0608 67.3662 21.0608C68.6117 21.0608 69.2114 20.2033 69.2114 18.7291V18.714Z" fill="black"/>
<path d="M79.2987 22.1139H77.884L76.454 17.1195H76.3463L74.9163 22.1139H73.517L71.6102 15.3293H72.9941L74.2397 20.5042H74.3319L75.762 15.3293H77.069L78.4991 20.5042H78.6067L79.8369 15.3293H81.2054L79.2987 22.1139Z" fill="black"/>
<path d="M82.8046 15.3293H84.127V16.4124H84.2347C84.4047 16.025 84.6955 15.7 85.0655 15.4839C85.4355 15.2678 85.8659 15.1716 86.2952 15.2089C86.5902 15.1864 86.8868 15.2211 87.168 15.311C87.4493 15.401 87.7096 15.5445 87.9339 15.7332C88.1583 15.922 88.3423 16.1522 88.4753 16.4108C88.6084 16.6693 88.6879 16.9511 88.7093 17.2398C88.7249 17.3999 88.7249 17.5611 88.7093 17.7212V22.1139H87.3408V18.0521C87.3408 16.954 86.8487 16.4124 85.8031 16.4124C85.5911 16.3958 85.3778 16.4223 85.1768 16.4904C84.9758 16.5585 84.7914 16.6667 84.6354 16.8081C84.4793 16.9495 84.3549 17.121 84.27 17.3118C84.1852 17.5027 84.1417 17.7086 84.1424 17.9167V22.1139H82.7739L82.8046 15.3293Z" fill="black"/>
<path d="M90.8621 12.6967H92.2614V22.1138H90.8929L90.8621 12.6967Z" fill="black"/>
<path d="M94.1374 18.714C94.0558 17.8662 94.3219 17.0214 94.877 16.3655C95.4321 15.7095 96.2308 15.2962 97.0974 15.2164C97.9641 15.1366 98.8276 15.3969 99.498 15.94C100.169 16.483 100.591 17.2644 100.673 18.1123C100.688 18.3126 100.688 18.5137 100.673 18.714C100.7 19.5307 100.409 20.3269 99.8579 20.9413C99.3073 21.5557 98.5384 21.9422 97.7073 22.0226C96.8761 22.1029 96.0448 21.8711 95.3819 21.374C94.719 20.877 94.2741 20.1519 94.1374 19.3458C94.1067 19.1363 94.1067 18.9235 94.1374 18.714ZM99.2579 18.714C99.2579 17.2097 98.5813 16.3973 97.3973 16.3973C96.2133 16.3973 95.5521 17.2548 95.5521 18.714C95.5521 20.1732 96.2133 21.0608 97.3973 21.0608C98.5813 21.0608 99.2579 20.1883 99.2579 18.714Z" fill="black"/>
<path d="M102.103 20.1883C102.103 18.9697 103.025 18.2778 104.686 18.1724L106.562 18.0521V17.4654C106.562 16.7584 106.07 16.3522 105.132 16.3522C104.194 16.3522 103.84 16.623 103.702 17.1044H102.364C102.518 15.931 103.625 15.1938 105.193 15.1938C106.762 15.1938 107.915 16.0363 107.915 17.4654V22.1138H106.593V21.151H106.485C106.271 21.4967 105.964 21.7787 105.599 21.9669C105.233 22.155 104.822 22.2422 104.409 22.2191C104.136 22.2483 103.86 22.2242 103.597 22.1482C103.334 22.0723 103.088 21.946 102.875 21.7768C102.662 21.6075 102.486 21.3985 102.356 21.162C102.226 20.9255 102.145 20.6661 102.118 20.3989C102.105 20.3294 102.1 20.2588 102.103 20.1883ZM106.562 19.5564V18.9848L104.87 19.0901C103.917 19.0901 103.471 19.4812 103.471 20.0679C103.471 20.6546 104.025 21.0307 104.763 21.0307C104.976 21.0515 105.191 21.031 105.396 20.9704C105.601 20.9099 105.792 20.8104 105.957 20.6776C106.123 20.5449 106.26 20.3816 106.361 20.197C106.462 20.0123 106.525 19.81 106.547 19.6016L106.562 19.5564Z" fill="black"/>
<path d="M109.714 18.714C109.714 16.5779 110.837 15.224 112.59 15.224C113.022 15.204 113.452 15.3052 113.828 15.5157C114.204 15.7262 114.51 16.0373 114.712 16.4124H114.804V12.6967H116.172V22.1138H114.865V21.0608H114.758C114.539 21.4298 114.221 21.7338 113.839 21.9404C113.458 22.147 113.026 22.2485 112.59 22.2342C110.821 22.2192 109.714 20.8652 109.714 18.714ZM111.129 18.714C111.129 20.2184 111.821 21.0157 112.974 21.0157C114.127 21.0157 114.835 20.1432 114.835 18.7291C114.835 17.315 114.112 16.4274 112.974 16.4274C111.836 16.4274 111.129 17.2999 111.129 18.714Z" fill="black"/>
<path d="M121.831 18.714C121.75 17.8662 122.016 17.0214 122.571 16.3655C123.126 15.7095 123.925 15.2962 124.791 15.2164C125.658 15.1366 126.521 15.3969 127.192 15.94C127.862 16.483 128.285 17.2644 128.366 18.1123C128.382 18.3126 128.382 18.5137 128.366 18.714C128.394 19.5307 128.102 20.3269 127.552 20.9413C127.001 21.5557 126.232 21.9422 125.401 22.0226C124.57 22.1029 123.739 21.8711 123.076 21.374C122.413 20.877 121.968 20.1519 121.831 19.3458C121.816 19.1355 121.816 18.9243 121.831 18.714ZM126.952 18.714C126.952 17.2097 126.275 16.3973 125.106 16.3973C123.938 16.3973 123.246 17.2548 123.246 18.714C123.246 20.1732 123.907 21.0608 125.106 21.0608C126.306 21.0608 126.952 20.1883 126.952 18.714Z" fill="black"/>
<path d="M130.196 15.3292H131.503V16.4124H131.611C131.784 16.0238 132.077 15.6983 132.45 15.4823C132.823 15.2662 133.255 15.1706 133.687 15.2089C134.282 15.1674 134.869 15.3575 135.321 15.7379C135.774 16.1183 136.054 16.6581 136.101 17.2398C136.117 17.3998 136.117 17.5611 136.101 17.7211V22.1138H134.748V18.0521C134.748 16.9539 134.256 16.4124 133.21 16.4124C132.998 16.3957 132.785 16.4223 132.584 16.4904C132.383 16.5585 132.198 16.6667 132.042 16.8081C131.886 16.9494 131.762 17.121 131.677 17.3118C131.592 17.5026 131.549 17.7086 131.549 17.9167C131.542 17.9917 131.542 18.0673 131.549 18.1424V22.1138H130.181L130.196 15.3292Z" fill="black"/>
<path d="M143.805 13.6444V15.3744H145.342V16.5478H143.805V20.0379C143.805 20.7449 144.097 21.0608 144.774 21.0608H145.296V22.174C145.051 22.1964 144.804 22.1964 144.558 22.174C143.021 22.174 142.436 21.6475 142.436 20.3538V16.5478H141.329V15.4346H142.436V13.6444H143.805Z" fill="black"/>
<path d="M147.157 12.6967H148.525V16.4274H148.633C148.81 16.044 149.102 15.7222 149.47 15.5046C149.838 15.287 150.264 15.1839 150.694 15.2089C150.993 15.1927 151.292 15.2343 151.574 15.3314C151.857 15.4286 152.117 15.5793 152.34 15.7749C152.563 15.9706 152.744 16.2073 152.873 16.4716C153.002 16.7359 153.077 17.0225 153.092 17.315C153.108 17.455 153.108 17.5962 153.092 17.7362V22.1138H151.724V18.0521C151.724 16.969 151.216 16.4274 150.186 16.4274C149.969 16.409 149.751 16.4336 149.543 16.5C149.336 16.5664 149.145 16.673 148.982 16.8136C148.818 16.9541 148.685 17.1257 148.59 17.3178C148.496 17.51 148.443 17.7188 148.433 17.9318V22.1138H147.157V12.6967Z" fill="black"/>
<path d="M161.088 20.2785C160.902 20.9121 160.489 21.4587 159.924 21.818C159.359 22.1772 158.68 22.325 158.013 22.2342C157.596 22.2546 157.18 22.1919 156.789 22.0498C156.398 21.9078 156.04 21.6894 155.738 21.408C155.436 21.1265 155.196 20.7879 155.032 20.4127C154.868 20.0375 154.783 19.6336 154.784 19.2255C154.769 19.0604 154.769 18.8942 154.784 18.7291C154.728 18.323 154.754 17.9101 154.861 17.5139C154.968 17.1178 155.154 16.7463 155.409 16.4207C155.663 16.095 155.98 15.8217 156.343 15.6164C156.705 15.411 157.106 15.2776 157.521 15.2239C157.674 15.209 157.829 15.209 157.982 15.2239C159.904 15.2239 161.058 16.5026 161.058 18.6388V19.1051H156.183V19.1804C156.169 19.4184 156.203 19.6569 156.285 19.8816C156.367 20.1063 156.494 20.3125 156.659 20.488C156.824 20.6635 157.024 20.8047 157.246 20.9031C157.468 21.0015 157.708 21.0552 157.952 21.0608H158.121C158.45 21.0972 158.783 21.0381 159.078 20.891C159.373 20.744 159.618 20.5153 159.781 20.2334L161.088 20.2785ZM156.291 18.0521H159.781C159.811 17.6219 159.666 17.1975 159.379 16.8709C159.091 16.5442 158.683 16.3417 158.244 16.3071H158.075C157.601 16.3071 157.148 16.4909 156.813 16.8182C156.479 17.1454 156.291 17.5893 156.291 18.0521Z" fill="black"/>
</g>
<defs>
<clipPath id="clip0_376_5265">
<rect width="184" height="60.1738" fill="white"/>
</clipPath>
</defs>
</svg>
