<svg width="29" height="28" viewBox="0 0 29 28" fill="none" xmlns="http://www.w3.org/2000/svg">
<path d="M25.3758 0.606934H3.65455C1.94788 0.606934 0.551514 1.93348 0.551514 3.55481V24.19C0.551514 25.8128 1.94788 27.1379 3.65455 27.1379H14.5152V16.8203H11.4121V13.1723H14.5152V10.1507C14.5152 6.96109 16.3956 4.7207 20.3582 4.7207L23.1555 4.72365V8.56326H21.2984C19.7562 8.56326 19.1697 9.66282 19.1697 10.6828V13.1737H23.154L22.2727 16.8203H19.1697V27.1379H25.3758C27.0824 27.1379 28.4788 25.8128 28.4788 24.19V3.55481C28.4788 1.93348 27.0824 0.606934 25.3758 0.606934Z" fill="#03178F"/>
</svg>
