<svg width="24" height="24" fill="none" xmlns="http://www.w3.org/2000/svg"><g clip-path="url(#clip0_104_61)" fill="#03178F"><path d="M12 5c1.617 0 3.101.554 4.286 1.474l3.637-3.47A11.94 11.94 0 0012 0C7.392 0 3.397 2.6 1.386 6.41L5.43 9.603A6.996 6.996 0 0112 5zM23.896 13.502C23.96 13.01 24 12.509 24 12c0-.858-.094-1.693-.265-2.5H12v5h6.486a7.072 7.072 0 01-2.648 3.32l4.06 3.204a11.987 11.987 0 003.998-7.522z"/><path d="M5 12c0-.843.157-1.648.43-2.397L1.386 6.41A11.94 11.94 0 000 12c0 1.997.495 3.876 1.358 5.533l4.05-3.197A6.972 6.972 0 015 12z"/><path d="M12 19a6.997 6.997 0 01-6.592-4.664l-4.05 3.197C3.36 21.373 7.37 24 12 24c3.028 0 5.789-1.125 7.897-2.976l-4.059-3.204A6.832 6.832 0 0112 19z"/><path opacity=".1" d="M12 23.75a12.416 12.416 0 01-8.952-3.779C5.245 22.438 8.437 24 12 24a11.94 11.94 0 008.888-3.96A12.406 12.406 0 0112 23.75zM12 14.25v.25h6.486l.101-.25H12z"/><path d="M23.994 12.147c.001-.05.006-.098.006-.147l-.002-.041c0 .063-.004.125-.004.188z"/><path opacity=".2" d="M12 9.5v.25h11.786a12.836 12.836 0 00-.05-.25H12z"/><path opacity=".1" d="M15.789 5.89A6.932 6.932 0 0012 4.75a7 7 0 00-6.999 7.117A6.994 6.994 0 0112 5c1.402 0 2.694.43 3.789 1.14.167.11.34.212.497.334l3.637-3.47-3.637 3.22c-.157-.122-.33-.224-.498-.333z"/><path opacity=".2" d="M12 .25c2.975 0 5.683 1.098 7.78 2.892l.143-.138-.11-.096A11.829 11.829 0 0012 0C5.373 0 0 5.373 0 12c0 .042.006.083.006.125C.074 5.555 5.415.25 12 .25z"/></g><defs><clipPath id="clip0_104_61"><path fill="#fff" d="M0 0h24v24H0z"/></clipPath></defs></svg>