<svg width="185" height="54" viewBox="0 0 185 54" fill="none" xmlns="http://www.w3.org/2000/svg">
<path d="M178.148 0.205627H6.85185C3.06768 0.205627 0 3.2162 0 6.92993V47.2757C0 50.9894 3.06768 54 6.85185 54H178.148C181.932 54 185 50.9894 185 47.2757V6.92993C185 3.2162 181.932 0.205627 178.148 0.205627Z" fill="white"/>
<path d="M178.148 1.28152C179.675 1.28152 181.139 1.87661 182.218 2.9359C183.297 3.99518 183.904 5.43187 183.904 6.92993V47.2757C183.904 48.7738 183.297 50.2105 182.218 51.2697C181.139 52.329 179.675 52.9241 178.148 52.9241H6.85185C5.32538 52.9241 3.86144 52.329 2.78206 51.2697C1.70268 50.2105 1.0963 48.7738 1.0963 47.2757V6.92993C1.0963 5.43187 1.70268 3.99518 2.78206 2.9359C3.86144 1.87661 5.32538 1.28152 6.85185 1.28152H178.148ZM178.148 0.205627H6.85185C5.03463 0.205627 3.29183 0.914078 2.00686 2.17513C0.721889 3.43618 0 5.14653 0 6.92993L0 47.2757C0 49.0591 0.721889 50.7695 2.00686 52.0305C3.29183 53.2916 5.03463 54 6.85185 54H178.148C179.965 54 181.708 53.2916 182.993 52.0305C184.278 50.7695 185 49.0591 185 47.2757V6.92993C185 5.14653 184.278 3.43618 182.993 2.17513C181.708 0.914078 179.965 0.205627 178.148 0.205627V0.205627Z" fill="#A6A6A6"/>
<path d="M61.1452 10.229C61.0797 10.0286 60.9934 9.84909 60.8863 9.69038C60.7812 9.52968 60.6552 9.39279 60.5084 9.27971C60.3636 9.16663 60.1989 9.08033 60.0144 9.02081C59.8299 8.96129 59.6275 8.93153 59.4073 8.93153C59.0462 8.93153 58.7179 9.02478 58.4223 9.21126C58.1267 9.39775 57.8916 9.67252 57.717 10.0356C57.5424 10.3986 57.4552 10.844 57.4552 11.3717C57.4552 11.8995 57.5434 12.3448 57.72 12.7079C57.8966 13.0709 58.1356 13.3457 58.4372 13.5322C58.7387 13.7187 59.078 13.8119 59.4549 13.8119C59.8041 13.8119 60.1116 13.7375 60.3774 13.5887C60.6453 13.438 60.8536 13.2257 61.0024 12.9519C61.1531 12.6761 61.2285 12.3518 61.2285 11.9788L61.4547 12.0264H59.6216V11.3717H61.9427V12.0264C61.9427 12.5283 61.8356 12.9648 61.6213 13.3358C61.4091 13.7068 61.1155 13.9945 60.7405 14.1988C60.3675 14.4012 59.939 14.5023 59.4549 14.5023C58.9153 14.5023 58.4412 14.3754 58.0325 14.1214C57.6258 13.8675 57.3083 13.5064 57.0802 13.0382C56.854 12.57 56.7409 12.0145 56.7409 11.3717C56.7409 10.8896 56.8054 10.4562 56.9344 10.0713C57.0653 9.68443 57.2498 9.3551 57.4879 9.0833C57.726 8.81151 58.0077 8.6032 58.333 8.45837C58.6584 8.31355 59.0165 8.24114 59.4073 8.24114C59.7287 8.24114 60.0283 8.28974 60.306 8.38695C60.5857 8.48218 60.8347 8.61808 61.053 8.79465C61.2732 8.96923 61.4567 9.17853 61.6035 9.42255C61.7503 9.66459 61.8515 9.9334 61.907 10.229H61.1452ZM63.2067 14.419V8.32446H66.8849V8.97915H63.9447V11.0384H66.6944V11.6931H63.9447V13.7643H66.9325V14.419H63.2067ZM67.8818 8.97915V8.32446H72.4527V8.97915H70.5363V14.419H69.7982V8.97915H67.8818ZM76.6866 8.32446V14.419H75.9486V8.32446H76.6866ZM77.833 8.97915V8.32446H82.404V8.97915H80.4875V14.419H79.7495V8.97915H77.833ZM91.0421 11.3717C91.0421 12.0145 90.9261 12.57 90.6939 13.0382C90.4618 13.5064 90.1434 13.8675 89.7387 14.1214C89.334 14.3754 88.8717 14.5023 88.3519 14.5023C87.8322 14.5023 87.3699 14.3754 86.9652 14.1214C86.5605 13.8675 86.2421 13.5064 86.0099 13.0382C85.7778 12.57 85.6618 12.0145 85.6618 11.3717C85.6618 10.7289 85.7778 10.1735 86.0099 9.70526C86.2421 9.23706 86.5605 8.87599 86.9652 8.62205C87.3699 8.36811 87.8322 8.24114 88.3519 8.24114C88.8717 8.24114 89.334 8.36811 89.7387 8.62205C90.1434 8.87599 90.4618 9.23706 90.6939 9.70526C90.9261 10.1735 91.0421 10.7289 91.0421 11.3717ZM90.3279 11.3717C90.3279 10.844 90.2396 10.3986 90.0631 10.0356C89.8885 9.67252 89.6514 9.39775 89.3518 9.21126C89.0542 9.02478 88.7209 8.93153 88.3519 8.93153C87.9829 8.93153 87.6486 9.02478 87.3491 9.21126C87.0515 9.39775 86.8144 9.67252 86.6378 10.0356C86.4633 10.3986 86.376 10.844 86.376 11.3717C86.376 11.8995 86.4633 12.3448 86.6378 12.7079C86.8144 13.0709 87.0515 13.3457 87.3491 13.5322C87.6486 13.7187 87.9829 13.8119 88.3519 13.8119C88.7209 13.8119 89.0542 13.7187 89.3518 13.5322C89.6514 13.3457 89.8885 13.0709 90.0631 12.7079C90.2396 12.3448 90.3279 11.8995 90.3279 11.3717ZM97.1158 8.32446V14.419H96.4016L93.0806 9.63384H93.0211V14.419H92.283V8.32446H92.9972L96.3302 13.1215H96.3897V8.32446H97.1158Z" fill="black"/>
<path d="M61.1452 10.229L61.0502 10.2601L61.0727 10.329H61.1452V10.229ZM60.8863 9.69038L60.8026 9.74514L60.8034 9.74632L60.8863 9.69038ZM60.5084 9.27971L60.4468 9.35853L60.4474 9.35893L60.5084 9.27971ZM60.0144 9.02081L60.0451 8.92564H60.0451L60.0144 9.02081ZM57.717 10.0356L57.8071 10.0789L57.717 10.0356ZM57.72 12.7079L57.6301 12.7516L57.72 12.7079ZM58.4372 13.5322L58.3846 13.6173L58.4372 13.5322ZM60.3774 13.5887L60.4263 13.676L60.4265 13.6759L60.3774 13.5887ZM61.0024 12.9519L60.9146 12.9039L60.9145 12.9042L61.0024 12.9519ZM61.2285 11.9788L61.2491 11.881L61.1285 11.8556V11.9788H61.2285ZM61.4547 12.0264V12.1264H62.4151L61.4753 11.9286L61.4547 12.0264ZM59.6216 12.0264H59.5216V12.1264H59.6216V12.0264ZM59.6216 11.3717V11.2717H59.5216V11.3717H59.6216ZM61.9427 11.3717H62.0427V11.2717H61.9427V11.3717ZM61.6213 13.3358L61.5347 13.2858L61.5346 13.2861L61.6213 13.3358ZM60.7405 14.1988L60.7882 14.2867L60.7883 14.2866L60.7405 14.1988ZM58.0325 14.1214L57.9795 14.2062L57.9797 14.2064L58.0325 14.1214ZM57.0802 13.0382L56.9901 13.0817L56.9903 13.082L57.0802 13.0382ZM56.9344 10.0713L56.8397 10.0392L56.8396 10.0395L56.9344 10.0713ZM57.4879 9.0833L57.5631 9.14919L57.4879 9.0833ZM58.333 8.45837L58.2924 8.36702L58.333 8.45837ZM60.306 8.38695L60.273 8.48134L60.2738 8.48162L60.306 8.38695ZM61.053 8.79465L60.9901 8.87239L60.9908 8.87301L61.053 8.79465ZM61.6035 9.42255L61.5178 9.4741L61.518 9.47441L61.6035 9.42255ZM61.907 10.229V10.329H62.0276L62.0053 10.2105L61.907 10.229ZM61.2403 10.1979C61.1722 9.98963 61.082 9.80156 60.9692 9.63443L60.8034 9.74632C60.9049 9.89661 60.9873 10.0676 61.0502 10.2601L61.2403 10.1979ZM60.97 9.63562C60.8589 9.46591 60.7254 9.32065 60.5694 9.20049L60.4474 9.35893C60.585 9.46494 60.7034 9.59346 60.8026 9.74513L60.97 9.63562ZM60.5699 9.20089C60.4154 9.0802 60.2401 8.98856 60.0451 8.92564L59.9837 9.11598C60.1576 9.1721 60.3118 9.25305 60.4468 9.35853L60.5699 9.20089ZM60.0451 8.92564C59.8494 8.86252 59.6366 8.83153 59.4073 8.83153V9.03153C59.6185 9.03153 59.8103 9.06007 59.9837 9.11598L60.0451 8.92564ZM59.4073 8.83153C59.028 8.83153 58.6811 8.92978 58.3689 9.12669L58.4757 9.29584C58.7547 9.11978 59.0645 9.03153 59.4073 9.03153V8.83153ZM58.3689 9.12669C58.0552 9.32465 57.8084 9.6149 57.6269 9.99224L57.8071 10.0789C57.9749 9.73015 58.1983 9.47085 58.4757 9.29584L58.3689 9.12669ZM57.6269 9.99224C57.4441 10.3723 57.3552 10.8335 57.3552 11.3717H57.5552C57.5552 10.8546 57.6408 10.4249 57.8071 10.0789L57.6269 9.99224ZM57.3552 11.3717C57.3552 11.9101 57.4452 12.3714 57.6301 12.7516L57.8099 12.6642C57.6417 12.3182 57.5552 11.8888 57.5552 11.3717H57.3552ZM57.6301 12.7516C57.8137 13.1293 58.0648 13.4195 58.3846 13.6173L58.4898 13.4472C58.2065 13.272 57.9794 13.0126 57.8099 12.6642L57.6301 12.7516ZM58.3846 13.6173C58.703 13.8141 59.0606 13.9119 59.4549 13.9119V13.7119C59.0953 13.7119 58.7745 13.6232 58.4898 13.4472L58.3846 13.6173ZM59.4549 13.9119C59.8187 13.9119 60.1435 13.8343 60.4263 13.676L60.3286 13.5015C60.0797 13.6408 59.7895 13.7119 59.4549 13.7119V13.9119ZM60.4265 13.6759C60.7109 13.5158 60.9326 13.2897 61.0902 12.9997L60.9145 12.9042C60.7746 13.1617 60.5796 13.3602 60.3284 13.5016L60.4265 13.6759ZM61.0901 12.9999C61.2503 12.7069 61.3285 12.3654 61.3285 11.9788H61.1285C61.1285 12.3381 61.056 12.6454 60.9146 12.9039L61.0901 12.9999ZM61.2079 12.0767L61.4341 12.1243L61.4753 11.9286L61.2491 11.881L61.2079 12.0767ZM61.4547 11.9264H59.6216V12.1264H61.4547V11.9264ZM59.7216 12.0264V11.3717H59.5216V12.0264H59.7216ZM59.6216 11.4717H61.9427V11.2717H59.6216V11.4717ZM61.8427 11.3717V12.0264H62.0427V11.3717H61.8427ZM61.8427 12.0264C61.8427 12.5138 61.7388 12.9324 61.5348 13.2858L61.7079 13.3858C61.9324 12.9972 62.0427 12.5429 62.0427 12.0264H61.8427ZM61.5346 13.2861C61.3315 13.6411 61.0513 13.9155 60.6926 14.111L60.7883 14.2866C61.1796 14.0734 61.4867 13.7725 61.7081 13.3855L61.5346 13.2861ZM60.6928 14.1109C60.3364 14.3043 59.9247 14.4023 59.4549 14.4023V14.6023C59.9533 14.6023 60.3986 14.498 60.7882 14.2867L60.6928 14.1109ZM59.4549 14.4023C58.9316 14.4023 58.4762 14.2794 58.0852 14.0365L57.9797 14.2064C58.4061 14.4713 58.899 14.6023 59.4549 14.6023V14.4023ZM58.0854 14.0366C57.696 13.7934 57.3908 13.4473 57.1701 12.9944L56.9903 13.082C57.2259 13.5656 57.5555 13.9415 57.9795 14.2062L58.0854 14.0366ZM57.1702 12.9947C56.952 12.5429 56.8409 12.0029 56.8409 11.3717H56.6409C56.6409 12.0261 56.7561 12.5971 56.9902 13.0817L57.1702 12.9947ZM56.8409 11.3717C56.8409 10.8985 56.9043 10.476 57.0292 10.1031L56.8396 10.0395C56.7066 10.4363 56.6409 10.8808 56.6409 11.3717H56.8409ZM57.0291 10.1033C57.1564 9.72732 57.3348 9.40989 57.5631 9.14919L57.4127 9.01741C57.1649 9.3003 56.9743 9.64153 56.8397 10.0392L57.0291 10.1033ZM57.5631 9.14919C57.7918 8.88813 58.0618 8.68858 58.3737 8.54973L58.2924 8.36702C57.9536 8.51782 57.6601 8.73489 57.4127 9.01741L57.5631 9.14919ZM58.3737 8.54973C58.6851 8.41114 59.0291 8.34114 59.4073 8.34114V8.14114C59.0038 8.14114 58.6317 8.21596 58.2924 8.36702L58.3737 8.54973ZM59.4073 8.34114C59.7185 8.34114 60.0068 8.38817 60.273 8.48134L60.3391 8.29257C60.0498 8.19131 59.7389 8.14114 59.4073 8.14114V8.34114ZM60.2738 8.48162C60.543 8.57325 60.7815 8.7036 60.9901 8.87239L61.1159 8.7169C60.888 8.53255 60.6285 8.39111 60.3382 8.29229L60.2738 8.48162ZM60.9908 8.87301C61.2015 9.04004 61.3771 9.24022 61.5178 9.4741L61.6892 9.371C61.5363 9.11684 61.3448 8.89842 61.1151 8.71628L60.9908 8.87301ZM61.518 9.47441C61.6582 9.70555 61.7553 9.96294 61.8087 10.2475L62.0053 10.2105C61.9477 9.90387 61.8424 9.62363 61.689 9.37069L61.518 9.47441ZM61.907 10.129H61.1452V10.329H61.907V10.129ZM63.2067 14.419H63.1067V14.519H63.2067V14.419ZM63.2067 8.32446V8.22446H63.1067V8.32446H63.2067ZM66.8849 8.32446H66.9849V8.22446H66.8849V8.32446ZM66.8849 8.97915V9.07915H66.9849V8.97915H66.8849ZM63.9447 8.97915V8.87915H63.8447V8.97915H63.9447ZM63.9447 11.0384H63.8447V11.1384H63.9447V11.0384ZM66.6944 11.0384H66.7944V10.9384H66.6944V11.0384ZM66.6944 11.6931V11.7931H66.7944V11.6931H66.6944ZM63.9447 11.6931V11.5931H63.8447V11.6931H63.9447ZM63.9447 13.7643H63.8447V13.8643H63.9447V13.7643ZM66.9325 13.7643H67.0325V13.6643H66.9325V13.7643ZM66.9325 14.419V14.519H67.0325V14.419H66.9325ZM63.3067 14.419V8.32446H63.1067V14.419H63.3067ZM63.2067 8.42446H66.8849V8.22446H63.2067V8.42446ZM66.7849 8.32446V8.97915H66.9849V8.32446H66.7849ZM66.8849 8.87915H63.9447V9.07915H66.8849V8.87915ZM63.8447 8.97915V11.0384H64.0447V8.97915H63.8447ZM63.9447 11.1384H66.6944V10.9384H63.9447V11.1384ZM66.5944 11.0384V11.6931H66.7944V11.0384H66.5944ZM66.6944 11.5931H63.9447V11.7931H66.6944V11.5931ZM63.8447 11.6931V13.7643H64.0447V11.6931H63.8447ZM63.9447 13.8643H66.9325V13.6643H63.9447V13.8643ZM66.8325 13.7643V14.419H67.0325V13.7643H66.8325ZM66.9325 14.319H63.2067V14.519H66.9325V14.319ZM67.8818 8.97915H67.7818V9.07915H67.8818V8.97915ZM67.8818 8.32446V8.22446H67.7818V8.32446H67.8818ZM72.4527 8.32446H72.5527V8.22446H72.4527V8.32446ZM72.4527 8.97915V9.07915H72.5527V8.97915H72.4527ZM70.5363 8.97915V8.87915H70.4363V8.97915H70.5363ZM70.5363 14.419V14.519H70.6363V14.419H70.5363ZM69.7982 14.419H69.6982V14.519H69.7982V14.419ZM69.7982 8.97915H69.8982V8.87915H69.7982V8.97915ZM67.9818 8.97915V8.32446H67.7818V8.97915H67.9818ZM67.8818 8.42446H72.4527V8.22446H67.8818V8.42446ZM72.3527 8.32446V8.97915H72.5527V8.32446H72.3527ZM72.4527 8.87915H70.5363V9.07915H72.4527V8.87915ZM70.4363 8.97915V14.419H70.6363V8.97915H70.4363ZM70.5363 14.319H69.7982V14.519H70.5363V14.319ZM69.8982 14.419V8.97915H69.6982V14.419H69.8982ZM69.7982 8.87915H67.8818V9.07915H69.7982V8.87915ZM76.6866 8.32446H76.7866V8.22446H76.6866V8.32446ZM76.6866 14.419V14.519H76.7866V14.419H76.6866ZM75.9486 14.419H75.8486V14.519H75.9486V14.419ZM75.9486 8.32446V8.22446H75.8486V8.32446H75.9486ZM76.5866 8.32446V14.419H76.7866V8.32446H76.5866ZM76.6866 14.319H75.9486V14.519H76.6866V14.319ZM76.0486 14.419V8.32446H75.8486V14.419H76.0486ZM75.9486 8.42446H76.6866V8.22446H75.9486V8.42446ZM77.833 8.97915H77.733V9.07915H77.833V8.97915ZM77.833 8.32446V8.22446H77.733V8.32446H77.833ZM82.404 8.32446H82.504V8.22446H82.404V8.32446ZM82.404 8.97915V9.07915H82.504V8.97915H82.404ZM80.4875 8.97915V8.87915H80.3875V8.97915H80.4875ZM80.4875 14.419V14.519H80.5875V14.419H80.4875ZM79.7495 14.419H79.6495V14.519H79.7495V14.419ZM79.7495 8.97915H79.8495V8.87915H79.7495V8.97915ZM77.933 8.97915V8.32446H77.733V8.97915H77.933ZM77.833 8.42446H82.404V8.22446H77.833V8.42446ZM82.304 8.32446V8.97915H82.504V8.32446H82.304ZM82.404 8.87915H80.4875V9.07915H82.404V8.87915ZM80.3875 8.97915V14.419H80.5875V8.97915H80.3875ZM80.4875 14.319H79.7495V14.519H80.4875V14.319ZM79.8495 14.419V8.97915H79.6495V14.419H79.8495ZM79.7495 8.87915H77.833V9.07915H79.7495V8.87915ZM90.6939 13.0382L90.6043 12.9938L90.6939 13.0382ZM89.7387 14.1214L89.7918 14.2061L89.7387 14.1214ZM86.9652 14.1214L86.912 14.2061L86.9652 14.1214ZM86.0099 13.0382L86.0995 12.9938L86.0099 13.0382ZM86.0099 9.70526L85.9203 9.66084L86.0099 9.70526ZM89.7387 8.62205L89.7918 8.53734L89.7387 8.62205ZM90.6939 9.70526L90.6043 9.74967L90.6939 9.70526ZM90.0631 10.0356L89.9729 10.0789L89.9731 10.0793L90.0631 10.0356ZM89.3518 9.21126L89.2987 9.296L89.299 9.29616L89.3518 9.21126ZM87.3491 9.21126L87.2962 9.12637L87.296 9.12653L87.3491 9.21126ZM86.6378 10.0356L86.5479 9.99184L86.5477 9.99224L86.6378 10.0356ZM86.6378 12.7079L86.5477 12.7512L86.5479 12.7516L86.6378 12.7079ZM87.3491 13.5322L87.296 13.6169L87.2962 13.6171L87.3491 13.5322ZM89.3518 13.5322L89.299 13.4473L89.2987 13.4475L89.3518 13.5322ZM90.0631 12.7079L89.9731 12.6642L89.9729 12.6646L90.0631 12.7079ZM90.9421 11.3717C90.9421 12.0026 90.8282 12.5422 90.6043 12.9938L90.7835 13.0826C91.0239 12.5978 91.1421 12.0264 91.1421 11.3717H90.9421ZM90.6043 12.9938C90.3796 13.4471 90.0732 13.7935 89.6855 14.0367L89.7918 14.2061C90.2136 13.9415 90.544 13.5658 90.7835 13.0826L90.6043 12.9938ZM89.6855 14.0367C89.2981 14.2798 88.8546 14.4023 88.3519 14.4023V14.6023C88.8888 14.6023 89.3698 14.4709 89.7918 14.2061L89.6855 14.0367ZM88.3519 14.4023C87.8492 14.4023 87.4057 14.2798 87.0183 14.0367L86.912 14.2061C87.3341 14.4709 87.8151 14.6023 88.3519 14.6023V14.4023ZM87.0183 14.0367C86.6307 13.7935 86.3243 13.4471 86.0995 12.9938L85.9203 13.0826C86.1599 13.5658 86.4902 13.9415 86.912 14.2061L87.0183 14.0367ZM86.0995 12.9938C85.8757 12.5422 85.7618 12.0026 85.7618 11.3717H85.5618C85.5618 12.0264 85.68 12.5978 85.9203 13.0826L86.0995 12.9938ZM85.7618 11.3717C85.7618 10.7409 85.8757 10.2013 86.0995 9.74967L85.9203 9.66084C85.68 10.1457 85.5618 10.717 85.5618 11.3717H85.7618ZM86.0995 9.74967C86.3243 9.2964 86.6307 8.94997 87.0183 8.70675L86.912 8.53734C86.4902 8.802 86.1599 9.17771 85.9203 9.66084L86.0995 9.74967ZM87.0183 8.70675C87.4057 8.46368 87.8492 8.34114 88.3519 8.34114V8.14114C87.8151 8.14114 87.3341 8.27253 86.912 8.53734L87.0183 8.70675ZM88.3519 8.34114C88.8546 8.34114 89.2981 8.46368 89.6855 8.70675L89.7918 8.53734C89.3698 8.27253 88.8888 8.14114 88.3519 8.14114V8.34114ZM89.6855 8.70675C90.0732 8.94997 90.3796 9.2964 90.6043 9.74967L90.7835 9.66084C90.544 9.17771 90.2136 8.802 89.7918 8.53734L89.6855 8.70675ZM90.6043 9.74967C90.8282 10.2013 90.9421 10.7409 90.9421 11.3717H91.1421C91.1421 10.717 91.0239 10.1457 90.7835 9.66084L90.6043 9.74967ZM90.4279 11.3717C90.4279 10.8333 90.3379 10.372 90.153 9.99184L89.9731 10.0793C90.1414 10.4252 90.2279 10.8547 90.2279 11.3717H90.4279ZM90.1532 9.99224C89.9716 9.61456 89.7225 9.32425 89.4047 9.12637L89.299 9.29616C89.5802 9.47125 89.8054 9.73048 89.9729 10.0789L90.1532 9.99224ZM89.4049 9.12653C89.0906 8.92955 88.7387 8.83153 88.3519 8.83153V9.03153C88.7032 9.03153 89.0179 9.12001 89.2987 9.296L89.4049 9.12653ZM88.3519 8.83153C87.9651 8.83153 87.6124 8.92955 87.2962 9.12637L87.4019 9.29616C87.6849 9.12001 88.0007 9.03153 88.3519 9.03153V8.83153ZM87.296 9.12653C86.9803 9.32438 86.7314 9.61451 86.5479 9.99184L86.7278 10.0793C86.8974 9.73053 87.1227 9.47112 87.4022 9.296L87.296 9.12653ZM86.5477 9.99224C86.365 10.3723 86.276 10.8335 86.276 11.3717H86.476C86.476 10.8546 86.5616 10.4249 86.728 10.0789L86.5477 9.99224ZM86.276 11.3717C86.276 11.91 86.365 12.3711 86.5477 12.7512L86.728 12.6646C86.5616 12.3185 86.476 11.8889 86.476 11.3717H86.276ZM86.5479 12.7516C86.7314 13.129 86.9803 13.4191 87.296 13.6169L87.4022 13.4475C87.1227 13.2723 86.8974 13.0129 86.7278 12.6642L86.5479 12.7516ZM87.2962 13.6171C87.6124 13.8139 87.9651 13.9119 88.3519 13.9119V13.7119C88.0007 13.7119 87.6849 13.6235 87.4019 13.4473L87.2962 13.6171ZM88.3519 13.9119C88.7387 13.9119 89.0906 13.8139 89.4049 13.6169L89.2987 13.4475C89.0179 13.6235 88.7032 13.7119 88.3519 13.7119V13.9119ZM89.4047 13.6171C89.7225 13.4192 89.9716 13.1289 90.1532 12.7512L89.9729 12.6646C89.8054 13.013 89.5802 13.2722 89.299 13.4473L89.4047 13.6171ZM90.153 12.7516C90.3379 12.3714 90.4279 11.9101 90.4279 11.3717H90.2279C90.2279 11.8888 90.1414 12.3182 89.9731 12.6642L90.153 12.7516ZM97.1158 8.32446H97.2158V8.22446H97.1158V8.32446ZM97.1158 14.419V14.519H97.2158V14.419H97.1158ZM96.4016 14.419L96.3195 14.476L96.3493 14.519H96.4016V14.419ZM93.0806 9.63384L93.1627 9.57682L93.1329 9.53384H93.0806V9.63384ZM93.0211 9.63384V9.53384H92.9211V9.63384H93.0211ZM93.0211 14.419V14.519H93.1211V14.419H93.0211ZM92.283 14.419H92.183V14.519H92.283V14.419ZM92.283 8.32446V8.22446H92.183V8.32446H92.283ZM92.9972 8.32446L93.0794 8.2674L93.0495 8.22446H92.9972V8.32446ZM96.3302 13.1215L96.2481 13.1786L96.2779 13.2215H96.3302V13.1215ZM96.3897 13.1215V13.2215H96.4897V13.1215H96.3897ZM96.3897 8.32446V8.22446H96.2897V8.32446H96.3897ZM97.0158 8.32446V14.419H97.2158V8.32446H97.0158ZM97.1158 14.319H96.4016V14.519H97.1158V14.319ZM96.4838 14.362L93.1627 9.57682L92.9984 9.69085L96.3195 14.476L96.4838 14.362ZM93.0806 9.53384H93.0211V9.73384H93.0806V9.53384ZM92.9211 9.63384V14.419H93.1211V9.63384H92.9211ZM93.0211 14.319H92.283V14.519H93.0211V14.319ZM92.383 14.419V8.32446H92.183V14.419H92.383ZM92.283 8.42446H92.9972V8.22446H92.283V8.42446ZM92.9151 8.38152L96.2481 13.1786L96.4123 13.0645L93.0794 8.2674L92.9151 8.38152ZM96.3302 13.2215H96.3897V13.0215H96.3302V13.2215ZM96.4897 13.1215V8.32446H96.2897V13.1215H96.4897ZM96.3897 8.42446H97.1158V8.22446H96.3897V8.42446Z" fill="black"/>
<path d="M93.3765 29.4561C92.2219 29.4588 91.094 29.7974 90.1355 30.4291C89.177 31.0608 88.4309 31.9573 87.9916 33.0052C87.5522 34.0531 87.4394 35.2053 87.6673 36.3161C87.8952 37.4269 88.4536 38.4464 89.272 39.2458C90.0903 40.0451 91.1318 40.5884 92.2648 40.8068C93.3977 41.0253 94.5712 40.9091 95.6369 40.473C96.7025 40.037 97.6125 39.3006 98.2517 38.3569C98.8909 37.4133 99.2307 36.3049 99.228 35.1718C99.2391 34.4159 99.0952 33.6655 98.8048 32.9653C98.5143 32.2651 98.0833 31.6295 97.5373 31.0962C96.9913 30.5629 96.3416 30.1428 95.6268 29.8611C94.9119 29.5793 94.1467 29.4416 93.3765 29.4561ZM93.3765 38.6415C92.6688 38.6901 91.9626 38.5286 91.3497 38.178C90.7367 37.8275 90.2454 37.3041 89.9396 36.6759C89.6338 36.0477 89.5277 35.3437 89.6349 34.6555C89.7422 33.9673 90.058 33.3267 90.5411 32.817C91.0243 32.3072 91.6526 31.9519 92.3443 31.7972C93.036 31.6425 93.7591 31.6956 94.4196 31.9496C95.0801 32.2036 95.6475 32.6467 96.048 33.2213C96.4485 33.796 96.6636 34.4756 96.6654 35.1718C96.6875 35.6129 96.6193 36.0539 96.4649 36.4688C96.3106 36.8836 96.0731 37.264 95.7666 37.5874C95.4601 37.9107 95.0907 38.1706 94.6802 38.3517C94.2697 38.5327 93.8264 38.6313 93.3765 38.6415ZM80.6046 29.4561C79.45 29.4588 78.3222 29.7974 77.3637 30.4291C76.4052 31.0608 75.6591 31.9573 75.2197 33.0052C74.7804 34.0531 74.6675 35.2053 74.8954 36.3161C75.1233 37.4269 75.6818 38.4464 76.5001 39.2458C77.3185 40.0451 78.36 40.5884 79.4929 40.8068C80.6258 41.0253 81.7993 40.9091 82.865 40.473C83.9307 40.037 84.8407 39.3006 85.4799 38.3569C86.1191 37.4133 86.4588 36.3049 86.4561 35.1718C86.4673 34.4159 86.3234 33.6655 86.0329 32.9653C85.7424 32.2651 85.3114 31.6295 84.7654 31.0962C84.2195 30.5629 83.5697 30.1428 82.8549 29.8611C82.1401 29.5793 81.3748 29.4416 80.6046 29.4561ZM80.6046 38.6415C79.8969 38.6901 79.1907 38.5286 78.5778 38.178C77.9649 37.8275 77.4736 37.3041 77.1678 36.6759C76.862 36.0477 76.7558 35.3437 76.8631 34.6555C76.9704 33.9673 77.2861 33.3267 77.7693 32.817C78.2525 32.3072 78.8807 31.9519 79.5724 31.7972C80.2641 31.6425 80.9872 31.6956 81.6477 31.9496C82.3083 32.2036 82.8757 32.6467 83.2762 33.2213C83.6767 33.796 83.8918 34.4756 83.8935 35.1718C83.9156 35.6129 83.8474 36.0539 83.6931 36.4688C83.5387 36.8836 83.3013 37.264 82.9948 37.5874C82.6882 37.9107 82.3188 38.1706 81.9083 38.3517C81.4978 38.5327 81.0546 38.6313 80.6046 38.6415ZM65.4209 31.2179V33.6386H71.3409C71.2481 34.7788 70.7652 35.8547 69.9706 36.6915C69.3767 37.2852 68.6625 37.75 67.874 38.0558C67.0856 38.3616 66.2405 38.5016 65.3935 38.4667C63.649 38.4667 61.9759 37.7866 60.7423 36.5759C59.5088 35.3653 58.8157 33.7234 58.8157 32.0113C58.8157 30.2993 59.5088 28.6573 60.7423 27.4467C61.9759 26.2361 63.649 25.556 65.3935 25.556C67.066 25.5316 68.6809 26.1549 69.8883 27.2909L71.6287 25.5829C70.8119 24.7901 69.8422 24.1653 68.7762 23.745C67.7103 23.3247 66.5696 23.1174 65.4209 23.1353C64.2027 23.0887 62.9874 23.284 61.8479 23.7095C60.7083 24.1349 59.6681 24.7817 58.7894 25.6112C57.9107 26.4406 57.2116 27.4356 56.7341 28.5365C56.2566 29.6374 56.0105 30.8216 56.0105 32.0181C56.0105 33.2146 56.2566 34.3987 56.7341 35.4996C57.2116 36.6005 57.9107 37.5955 58.7894 38.425C59.6681 39.2544 60.7083 39.9012 61.8479 40.3266C62.9874 40.7521 64.2027 40.9474 65.4209 40.9009C66.5932 40.9468 67.7621 40.7489 68.8508 40.3201C69.9396 39.8913 70.9237 39.2413 71.7383 38.4129C73.1774 36.8615 73.9442 34.821 73.8761 32.7241C73.881 32.2194 73.8397 31.7153 73.7528 31.2179H65.4209ZM127.512 33.1007C127.155 32.0688 126.487 31.1678 125.596 30.517C124.705 29.8662 123.634 29.4962 122.524 29.4561C121.775 29.4547 121.033 29.6041 120.344 29.8952C119.656 30.1864 119.036 30.613 118.522 31.1487C118.008 31.6844 117.612 32.3178 117.357 33.0097C117.103 33.7017 116.996 34.4376 117.043 35.1718C117.031 36.3994 117.424 37.5978 118.164 38.5881C118.903 39.5783 119.95 40.3071 121.146 40.6657C122.342 41.0243 123.625 40.9934 124.802 40.5777C125.979 40.162 126.988 39.3837 127.677 38.3591L125.69 37.0142C125.394 37.4987 124.973 37.8989 124.471 38.1749C123.969 38.4509 123.401 38.5932 122.826 38.5877C122.232 38.6118 121.644 38.459 121.14 38.1493C120.637 37.8397 120.24 37.3877 120.003 36.8528L127.8 33.6924L127.512 33.1007ZM119.564 35.0104C119.536 34.5926 119.594 34.1737 119.733 33.778C119.872 33.3823 120.091 33.0178 120.375 32.706C120.66 32.3941 121.005 32.1411 121.391 31.9618C121.776 31.7825 122.194 31.6805 122.62 31.6617C123.062 31.6352 123.501 31.7372 123.884 31.9549C124.267 32.1726 124.576 32.4964 124.772 32.8855L119.564 35.0104ZM113.233 40.5512H115.796V23.7405H113.233V40.5512ZM109.04 30.7337H108.944C108.555 30.3181 108.08 29.989 107.55 29.7687C107.021 29.5483 106.449 29.4417 105.874 29.4561C104.377 29.5274 102.964 30.1614 101.93 31.2267C100.896 32.2921 100.319 33.7071 100.319 35.1785C100.319 36.6499 100.896 38.0649 101.93 39.1302C102.964 40.1956 104.377 40.8296 105.874 40.9009C106.455 40.9123 107.032 40.7977 107.562 40.5652C108.093 40.3327 108.565 39.9881 108.944 39.556H109.04V40.3764C109.04 42.5685 107.848 43.7385 105.929 43.7385C105.288 43.7247 104.666 43.5243 104.141 43.1627C103.617 42.8011 103.214 42.2947 102.983 41.7078L100.763 42.6088C101.173 43.6205 101.887 44.4861 102.809 45.0912C103.732 45.6964 104.82 46.0125 105.929 45.9979C108.93 45.9979 111.411 44.263 111.411 40.0402V29.7923H109.04V30.7337ZM106.094 38.6415C105.196 38.5866 104.353 38.1978 103.737 37.5544C103.121 36.911 102.778 36.0613 102.778 35.1785C102.778 34.2956 103.121 33.446 103.737 32.8026C104.353 32.1592 105.196 31.7704 106.094 31.7155C106.532 31.7341 106.963 31.8391 107.36 32.0243C107.756 32.2095 108.111 32.4711 108.402 32.7936C108.694 33.1161 108.916 33.4928 109.056 33.9013C109.197 34.3099 109.251 34.7419 109.218 35.1718C109.255 35.603 109.203 36.0373 109.065 36.4482C108.926 36.8592 108.704 37.2383 108.412 37.5626C108.12 37.887 107.764 38.1498 107.365 38.3353C106.967 38.5207 106.534 38.6249 106.094 38.6415ZM139.517 23.7405H133.378V40.5512H135.94V34.1766H139.517C140.247 34.2281 140.981 34.1313 141.671 33.8924C142.362 33.6535 142.995 33.2776 143.531 32.788C144.067 32.2984 144.494 31.7057 144.786 31.0469C145.079 30.388 145.23 29.6771 145.23 28.9585C145.23 28.2399 145.079 27.529 144.786 26.8702C144.494 26.2113 144.067 25.6186 143.531 25.129C142.995 24.6395 142.362 24.2635 141.671 24.0246C140.981 23.7857 140.247 23.689 139.517 23.7405ZM139.517 31.8096H135.94V26.0805H139.572C140.349 26.0805 141.095 26.3837 141.645 26.9235C142.195 27.4632 142.504 28.1952 142.504 28.9585C142.504 29.7218 142.195 30.4538 141.645 30.9936C141.095 31.5333 140.349 31.8365 139.572 31.8365L139.517 31.8096ZM155.331 29.4023C154.398 29.3458 153.468 29.5591 152.657 30.0156C151.846 30.4721 151.189 31.152 150.768 31.971L153.029 32.8989C153.257 32.4947 153.6 32.164 154.016 31.9468C154.432 31.7296 154.903 31.6353 155.372 31.6751C155.697 31.6378 156.027 31.6645 156.342 31.7536C156.656 31.8426 156.95 31.9923 157.205 32.1938C157.46 32.3954 157.672 32.6448 157.828 32.9275C157.983 33.2102 158.08 33.5205 158.113 33.8403V34.0017C157.289 33.5766 156.372 33.3551 155.441 33.3562C153.001 33.3562 150.507 34.7011 150.507 37.1487C150.531 37.669 150.662 38.1791 150.891 38.649C151.12 39.1188 151.443 39.5387 151.84 39.8836C152.238 40.2286 152.702 40.4917 153.205 40.6572C153.708 40.8227 154.24 40.8873 154.769 40.8471C155.412 40.882 156.053 40.7484 156.626 40.4601C157.199 40.1718 157.684 39.7391 158.031 39.2063H158.113V40.5512H160.579V34.0824C160.579 31.1372 158.305 29.4292 155.386 29.4292L155.331 29.4023ZM155.016 38.6146C154.18 38.6146 153.015 38.1977 153.015 37.189C153.015 35.8442 154.468 35.3869 155.756 35.3869C156.57 35.3672 157.374 35.5623 158.085 35.9518C157.999 36.6821 157.646 37.3571 157.092 37.8517C156.538 38.3462 155.82 38.6268 155.071 38.6415L155.016 38.6146ZM169.569 29.7923L166.636 37.0815H166.554L163.512 29.7923H160.771L165.335 39.9864L162.731 45.6482H165.472L172.419 29.7923H169.569ZM146.547 40.5512H149.096V23.7405H146.547V40.5512Z" fill="black"/>
<path d="M28.3928 26.3231L13.7983 41.52C13.9578 42.0948 14.2497 42.6259 14.6516 43.0724C15.0535 43.5188 15.5545 43.8686 16.1161 44.0948C16.6777 44.3209 17.2847 44.4174 17.8903 44.3767C18.4959 44.336 19.0838 44.1592 19.6087 43.86L36.0532 34.5536L28.3928 26.3231Z" fill="#EA4335"/>
<path d="M43.1527 23.7408L36.0542 19.7062L28.0786 26.686L36.0816 34.5534L43.139 30.5189C43.7663 30.1891 44.2908 29.6985 44.6564 29.0993C45.022 28.5001 45.2151 27.8148 45.2151 27.1164C45.2151 26.4179 45.022 25.7326 44.6564 25.1334C44.2908 24.5342 43.7663 24.0436 43.139 23.7139L43.1527 23.7408Z" fill="#FBBC04"/>
<path d="M13.8004 12.6863C13.728 13.0039 13.6957 13.3292 13.7045 13.6546V40.5518C13.7069 40.8879 13.753 41.2223 13.8415 41.547L28.9156 26.7535L13.8004 12.6863Z" fill="#4285F4"/>
<path d="M28.5035 27.1028L36.0543 19.6926L19.6098 10.3593C18.992 9.99889 18.2867 9.80842 17.568 9.80792C16.701 9.81036 15.8588 10.0919 15.1707 10.6094C14.4825 11.1268 13.9863 11.8516 13.7583 12.6725L28.5035 27.1028Z" fill="#34A853"/>
</svg>
