<svg width="31" height="24" viewBox="0 0 31 24" fill="none" xmlns="http://www.w3.org/2000/svg">
<path d="M30.2171 3.31386C29.1375 3.76833 27.9778 4.0754 26.7585 4.21419C28.0166 3.49908 28.9577 2.37357 29.4065 1.04768C28.2245 1.71462 26.9309 2.18408 25.582 2.43564C24.6748 1.51549 23.4733 0.905598 22.1639 0.700656C20.8545 0.495714 19.5105 0.707187 18.3406 1.30224C17.1707 1.8973 16.2403 2.84264 15.6938 3.99151C15.1474 5.14037 15.0155 6.42848 15.3187 7.65584C12.9238 7.54161 10.5809 6.95025 8.44215 5.92016C6.30338 4.89007 4.41651 3.44426 2.90398 1.67656C2.38681 2.52407 2.08944 3.5067 2.08944 4.5532C2.08886 5.49529 2.33307 6.42294 2.80039 7.25386C3.26772 8.08479 3.94371 8.79328 4.76839 9.31648C3.81198 9.28757 2.87667 9.04206 2.04031 8.60039V8.67409C2.04021 9.9954 2.52132 11.2761 3.402 12.2987C4.28268 13.3214 5.50868 14.0232 6.87199 14.2849C5.98476 14.513 5.05456 14.5466 4.15166 14.3832C4.53631 15.5201 5.28556 16.5143 6.29452 17.2265C7.30349 17.9388 8.52166 18.3335 9.77849 18.3554C7.64494 19.9466 5.01002 20.8096 2.2976 20.8058C1.81712 20.806 1.33705 20.7793 0.859863 20.726C3.61313 22.4077 6.81812 23.3003 10.0914 23.2968C21.1718 23.2968 27.2292 14.5784 27.2292 7.01713C27.2292 6.77148 27.2227 6.52336 27.2111 6.27771C28.3893 5.46824 29.4063 4.46586 30.2145 3.31755L30.2171 3.31386Z" fill="#03178F"/>
</svg>
