<svg width="68" height="28" viewBox="0 0 68 28" fill="none" xmlns="http://www.w3.org/2000/svg">
<path d="M18.0485 0C27.8574 0 35.9007 1.56999 43.7479 4.31746C49.2409 6.27995 54.5377 8.43868 59.4422 11.7749C61.7964 13.3449 63.9543 15.1111 65.5238 17.2699C66.3085 18.4473 66.897 19.6248 67.0932 20.9986C67.2894 22.3723 66.7008 23.746 65.5238 24.7273C64.3467 25.5123 63.1696 26.101 61.7964 26.2973C58.8537 26.886 55.911 27.2785 52.9683 27.4748C51.5951 27.4748 50.2218 27.671 48.8486 27.671C43.7479 27.4748 38.4511 26.886 33.3504 25.7085C28.0536 24.531 22.7568 23.1573 17.6561 21.3911C14.7134 20.4098 11.7707 19.6248 9.02423 18.0548C6.27772 16.4849 3.53123 14.5224 1.56944 11.7749C0.588543 10.5974 0 9.22367 0 7.45744C0 5.49495 1.17708 4.12121 2.74651 3.13997C5.10066 1.56999 7.65098 0.784993 10.5937 0.392496C13.5363 0.196248 16.479 0 18.0485 0ZM49.4371 24.531C51.2027 24.531 53.753 24.531 56.1072 24.1385C57.6766 23.9423 59.4422 23.746 61.0116 23.1573C63.562 22.3723 63.9543 20.9986 62.1887 19.0361C60.0308 16.4849 57.2843 14.5224 54.3416 12.9524C50.8104 10.9899 47.0829 9.41992 43.1594 8.04618C36.8816 5.6912 30.6039 4.31746 23.9338 3.92497C19.4217 3.53247 14.9096 3.72872 10.3975 4.31746C8.4357 4.51371 6.67008 5.29871 5.10065 6.27995C3.92358 7.06494 3.72741 8.04618 4.31595 9.22367C4.7083 9.81242 5.10066 10.5974 5.49302 10.9899C7.25863 12.9524 9.41659 14.7186 11.9669 15.8961C16.2828 17.8586 20.795 19.4286 25.5033 20.8023C32.9581 23.1573 40.8052 24.7273 49.4371 24.531Z" fill="#FFCA61"/>
</svg>
